  0
SECTION
  2
HEADER
999
 Generated by Genesis 2000
999
  Job : 76842, Step : linu
  9
$ACADVER
  1
AC1015
  9
$FILLMODE
 70
1
  9
$MEASUREMENT
 70
1
  9
$HANDSEED
  5
1EF
  0
ENDSEC
   0
SECTION
   2
TABLES
  0
TABLE
  2
VPORT
  5
2
330
0
100
AcDbSymbolTable
 70
1
  0
VPORT
  5
3
330
2
100
AcDbSymbolTableRecord
100
AcDbViewportTableRecord
  2
*ACTIVE
 70
0
 10
0.0
 20
0.0
 11
1.0
 21
1.0
 12
1.0
 22
1.0
 13
0.0
 23
0.0
 14
1.0
 24
1.0
 15
0.0
 25
0.0
 16
0.0
 26
0.0
 36
1.0
 17
0.0
 27
0.0
 37
0.0
 40
1.0
 41
1.0
 42
50.0
 43
0.0
 44
0.0
 50
0.0
 51
0.0
 71
0
 72
100
 73
1
 74
1
 75
0
 76
0
 77
0
 78
0
  0
ENDTAB
  0
TABLE
  2
LTYPE
  5
4
330
0
100
AcDbSymbolTable
 70
2
  0
LTYPE
  5
5
330
4
100
AcDbSymbolTableRecord
100
AcDbLinetypeTableRecord
  2
ByBlock
 70
0
  3

 72
65
 73
0
 40
0.0
  0
LTYPE
  5
6
330
4
100
AcDbSymbolTableRecord
100
AcDbLinetypeTableRecord
  2
ByLayer
 70
0
  3

 72
65
 73
0
 40
0.0
  0
ENDTAB
  0
TABLE
  2
STYLE
  5
7
330
0
100
AcDbSymbolTable
 70
1
  0
STYLE
  5
8
330
7
100
AcDbSymbolTableRecord
100
AcDbTextStyleTableRecord
  2
STANDARD
 70
0
 40
0.0
 41
1.0
 50
0.0
 71
0
 42
0.2
  3
txt
  4

  0
ENDTAB
  0
TABLE
  2
VIEW
  5
9
330
0
100
AcDbSymbolTable
 70
0
  0
ENDTAB
  0
TABLE
  2
UCS
  5
A
330
0
100
AcDbSymbolTable
 70
0
  0
ENDTAB
  0
TABLE
  2
APPID
  5
B
330
0
100
AcDbSymbolTable
 70
1
  0
APPID
  5
C
330
B
100
AcDbSymbolTableRecord
100
AcDbRegAppTableRecord
  2
ACAD
 70
0
  0
ENDTAB
  0
TABLE
  2
DIMSTYLE
  5
D
330
0
100
AcDbSymbolTable
 70
1
100
AcDbDimStyleTable
  0
DIMSTYLE
  105
E
330
D
100
AcDbSymbolTableRecord
100
AcDbDimStyleTableRecord
  2
STANDARD
 70
0
  0
ENDTAB
  0
TABLE
  2
LAYER
  5
F
330
0
100
AcDbSymbolTable
 70
1
  0
LAYER
  5
10
330
F
100
AcDbSymbolTableRecord
100
AcDbLayerTableRecord
390
0
  2
0
 70
64
 62
1
  6
CONTINUOUS
  0
ENDTAB
  0
TABLE
  2
BLOCK_RECORD
  5
11
330
0
100
AcDbSymbolTable
 70
4
  0
BLOCK_RECORD
  5
12
330
11
100
AcDbSymbolTableRecord
100
AcDbBlockTableRecord
  2
*Model_Space
  0
BLOCK_RECORD
  5
15
330
11
100
AcDbSymbolTableRecord
100
AcDbBlockTableRecord
  2
*Paper_Space
  0
BLOCK_RECORD
  5
18
330
11
100
AcDbSymbolTableRecord
100
AcDbBlockTableRecord
  2
PAD_R1
  0
BLOCK_RECORD
  5
1C
330
11
100
AcDbSymbolTableRecord
100
AcDbBlockTableRecord
  2
PAD_S1
  0
ENDTAB
  0
ENDSEC
  0
SECTION
2
BLOCKS
  0
BLOCK
  5
13
330
12
100
AcDbEntity
  8
0
100
AcDbBlockBegin
  2
*Model_Space
 70
0
 10
0.000000
 20
0.000000
 30
0.0
  3
*Model_Space
  1

  0
ENDBLK
  5
14
330
12
100
AcDbEntity
  8
0
100
AcDbBlockEnd
  0
BLOCK
  5
16
330
15
100
AcDbEntity
  8
0
100
AcDbBlockBegin
  2
*Paper_Space
 70
0
 10
0.000000
 20
0.000000
 30
0.0
  3
*Paper_Space
  1

  0
ENDBLK
  5
17
330
15
100
AcDbEntity
  8
0
100
AcDbBlockEnd
  0
BLOCK
  5
19
330
18
100
AcDbEntity
  8
0
100
AcDbBlockBegin
  2
PAD_R1
 70
0
 10
0.000000
 20
0.000000
 30
0.0
  3
PAD_R1
  1

  0
LWPOLYLINE
  5
1A
330
18
100
AcDbEntity
  8
0
100
AcDbPolyline
 90
2
 70
1
 43
0.5
 10
0.25
 20
0.0
 42
1.0
 10
-0.25
 20
0.0
 42
1.0
  0
ENDBLK
  5
1B
330
18
100
AcDbEntity
  8
0
100
AcDbBlockEnd
  0
BLOCK
  5
1D
330
1C
100
AcDbEntity
  8
0
100
AcDbBlockBegin
  2
PAD_S1
 70
0
 10
0.000000
 20
0.000000
 30
0.0
  3
PAD_S1
  1

  0
LWPOLYLINE
  5
1E
330
1C
100
AcDbEntity
  8
0
100
AcDbPolyline
 90
2
 70
0
 43
1.0
 10
-0.5
 20
0.0
 10
0.5
 20
0.0
  0
ENDBLK
  5
1F
330
1C
100
AcDbEntity
  8
0
100
AcDbBlockEnd
  0
ENDSEC
  0
SECTION
  2
ENTITIES
  0
LWPOLYLINE
  5
20
330
12
100
AcDbEntity
  8
0
100
AcDbPolyline
 43
0
 90
12
 70
1
 10
6.000000
 20
24.000000
 10
6.000000
 20
28.450000
 42
-1
 10
8.000000
 20
28.450000
 10
8.000000
 20
24.000000
 42
0.414214
 10
24.000000
 20
8.000000
 10
74.000000
 20
8.000000
 42
0.414214
 10
90.000000
 20
24.000000
 10
90.000000
 20
28.450000
 42
-1
 10
92.000000
 20
28.450000
 10
92.000000
 20
24.000000
 42
-0.414214
 10
74.000000
 20
6.000000
 10
24.000000
 20
6.000000
 42
-0.414214
  0
LWPOLYLINE
  5
21
330
12
100
AcDbEntity
  8
0
100
AcDbPolyline
 43
0
 90
4
 70
1
 10
6.000000
 20
32.550000
 10
6.000000
 20
81.950000
 42
-1
 10
8.000000
 20
81.950000
 10
8.000000
 20
32.550000
 42
-1
  0
LWPOLYLINE
  5
22
330
12
100
AcDbEntity
  8
0
100
AcDbPolyline
 43
0
 90
4
 70
1
 10
6.000000
 20
86.050000
 10
6.000000
 20
135.450000
 42
-1
 10
8.000000
 20
135.450000
 10
8.000000
 20
86.050000
 42
-1
  0
LWPOLYLINE
  5
23
330
12
100
AcDbEntity
  8
0
100
AcDbPolyline
 43
0
 90
12
 70
1
 10
6.000000
 20
139.550000
 10
6.000000
 20
144.000000
 42
-0.414214
 10
24.000000
 20
162.000000
 10
74.000000
 20
162.000000
 42
-0.414214
 10
92.000000
 20
144.000000
 10
92.000000
 20
139.550000
 42
-1
 10
90.000000
 20
139.550000
 10
90.000000
 20
144.000000
 42
0.414214
 10
74.000000
 20
160.000000
 10
24.000000
 20
160.000000
 42
0.414214
 10
8.000000
 20
144.000000
 10
8.000000
 20
139.550000
 42
-1
  0
LWPOLYLINE
  5
24
330
12
100
AcDbEntity
  8
0
100
AcDbPolyline
 43
0
 90
14
 70
1
 10
11.456203
 20
103.279998
 10
11.456203
 20
104.469997
 42
-0.414216
 10
12.256202
 20
105.269997
 10
14.670003
 20
105.269997
 10
14.670003
 20
111.219997
 42
-0.414389
 10
15.470477
 20
112.019998
 10
16.969528
 20
112.019998
 42
-0.41439
 10
17.770003
 20
111.219997
 10
17.770003
 20
96.519998
 42
-0.414389
 10
16.969528
 20
95.719997
 10
15.470002
 20
95.719997
 42
-0.414389
 10
14.670003
 20
96.520472
 10
14.670003
 20
102.479998
 10
12.256202
 20
102.479998
 42
-0.414216
  0
LWPOLYLINE
  5
25
330
12
100
AcDbEntity
  8
0
100
AcDbPolyline
 43
0
 90
8
 70
1
 10
23.270002
 20
96.520472
 10
23.270002
 20
111.219997
 42
-0.414389
 10
24.070477
 20
112.019998
 10
27.669528
 20
112.019998
 42
-0.41439
 10
28.470002
 20
111.219997
 10
28.470002
 20
96.519998
 42
-0.414389
 10
27.669528
 20
95.719997
 10
24.070003
 20
95.719997
 42
-0.414389
  0
LWPOLYLINE
  5
26
330
12
100
AcDbEntity
  8
0
100
AcDbPolyline
 43
0
 90
14
 70
1
 10
33.970003
 20
96.520472
 10
33.970003
 20
111.219997
 42
-0.414389
 10
34.770477
 20
112.019998
 10
36.269527
 20
112.019998
 42
-0.41439
 10
37.070003
 20
111.219997
 10
37.070003
 20
105.269997
 10
39.456202
 20
105.269997
 42
-0.414216
 10
40.256203
 20
104.469997
 10
40.256203
 20
103.279998
 42
-0.414216
 10
39.456202
 20
102.479998
 10
37.070003
 20
102.479998
 10
37.070003
 20
96.519998
 42
-0.414389
 10
36.269527
 20
95.719997
 10
34.770002
 20
95.719997
 42
-0.414389
  0
LWPOLYLINE
  5
27
330
12
100
AcDbEntity
  8
0
100
AcDbPolyline
 43
0
 90
16
 70
1
 10
70.000000
 20
69.000000
 10
70.000000
 20
102.000000
 42
-0.414216
 10
71.000000
 20
103.000000
 10
90.000000
 20
103.000000
 10
90.000000
 20
135.450000
 42
-1
 10
92.000000
 20
135.450000
 10
92.000000
 20
102.000000
 42
-0.414216
 10
91.000000
 20
101.000000
 10
72.000000
 20
101.000000
 10
72.000000
 20
70.000000
 10
91.000000
 20
70.000000
 42
-0.414216
 10
92.000000
 20
69.000000
 10
92.000000
 20
32.550000
 42
-1
 10
90.000000
 20
32.550000
 10
90.000000
 20
68.000000
 10
71.000000
 20
68.000000
 42
-0.414216
  0
LWPOLYLINE
  5
28
330
12
100
AcDbEntity
  8
0
100
AcDbPolyline
 43
0
 90
12
 70
1
 10
96.000000
 20
24.000000
 10
96.000000
 20
28.450000
 42
-1
 10
98.000000
 20
28.450000
 10
98.000000
 20
24.000000
 42
0.414214
 10
114.000000
 20
8.000000
 10
164.000000
 20
8.000000
 42
0.414214
 10
180.000000
 20
24.000000
 10
180.000000
 20
28.450000
 42
-1
 10
182.000000
 20
28.450000
 10
182.000000
 20
24.000000
 42
-0.414214
 10
164.000000
 20
6.000000
 10
114.000000
 20
6.000000
 42
-0.414214
  0
LWPOLYLINE
  5
29
330
12
100
AcDbEntity
  8
0
100
AcDbPolyline
 43
0
 90
4
 70
1
 10
96.000000
 20
32.550000
 10
96.000000
 20
81.950000
 42
-1
 10
98.000000
 20
81.950000
 10
98.000000
 20
32.550000
 42
-1
  0
LWPOLYLINE
  5
2A
330
12
100
AcDbEntity
  8
0
100
AcDbPolyline
 43
0
 90
4
 70
1
 10
96.000000
 20
86.050000
 10
96.000000
 20
135.450000
 42
-1
 10
98.000000
 20
135.450000
 10
98.000000
 20
86.050000
 42
-1
  0
LWPOLYLINE
  5
2B
330
12
100
AcDbEntity
  8
0
100
AcDbPolyline
 43
0
 90
12
 70
1
 10
96.000000
 20
139.550000
 10
96.000000
 20
144.000000
 42
-0.414214
 10
114.000000
 20
162.000000
 10
164.000000
 20
162.000000
 42
-0.414214
 10
182.000000
 20
144.000000
 10
182.000000
 20
139.550000
 42
-1
 10
180.000000
 20
139.550000
 10
180.000000
 20
144.000000
 42
0.414214
 10
164.000000
 20
160.000000
 10
114.000000
 20
160.000000
 42
0.414214
 10
98.000000
 20
144.000000
 10
98.000000
 20
139.550000
 42
-1
  0
LWPOLYLINE
  5
2C
330
12
100
AcDbEntity
  8
0
100
AcDbPolyline
 43
0
 90
14
 70
1
 10
101.456203
 20
103.279998
 10
101.456203
 20
104.469997
 42
-0.414216
 10
102.256202
 20
105.269997
 10
104.670002
 20
105.269997
 10
104.670002
 20
111.219997
 42
-0.414389
 10
105.470478
 20
112.019998
 10
106.969527
 20
112.019998
 42
-0.41439
 10
107.770003
 20
111.219997
 10
107.770003
 20
96.519998
 42
-0.414389
 10
106.969527
 20
95.719997
 10
105.470002
 20
95.719997
 42
-0.414389
 10
104.670002
 20
96.520472
 10
104.670002
 20
102.479998
 10
102.256202
 20
102.479998
 42
-0.414216
  0
LWPOLYLINE
  5
2D
330
12
100
AcDbEntity
  8
0
100
AcDbPolyline
 43
0
 90
8
 70
1
 10
113.270002
 20
96.520472
 10
113.270002
 20
111.219997
 42
-0.414389
 10
114.070477
 20
112.019998
 10
117.669527
 20
112.019998
 42
-0.41439
 10
118.470002
 20
111.219997
 10
118.470002
 20
96.519998
 42
-0.414389
 10
117.669527
 20
95.719997
 10
114.070002
 20
95.719997
 42
-0.414389
  0
LWPOLYLINE
  5
2E
330
12
100
AcDbEntity
  8
0
100
AcDbPolyline
 43
0
 90
14
 70
1
 10
123.970002
 20
96.520472
 10
123.970002
 20
111.219997
 42
-0.414389
 10
124.770477
 20
112.019998
 10
126.269528
 20
112.019998
 42
-0.41439
 10
127.070002
 20
111.219997
 10
127.070002
 20
105.269997
 10
129.456202
 20
105.269997
 42
-0.414216
 10
130.256203
 20
104.469997
 10
130.256203
 20
103.279998
 42
-0.414216
 10
129.456202
 20
102.479998
 10
127.070002
 20
102.479998
 10
127.070002
 20
96.519998
 42
-0.414389
 10
126.269528
 20
95.719997
 10
124.770002
 20
95.719997
 42
-0.414389
  0
LWPOLYLINE
  5
2F
330
12
100
AcDbEntity
  8
0
100
AcDbPolyline
 43
0
 90
16
 70
1
 10
160.000000
 20
69.000000
 10
160.000000
 20
102.000000
 42
-0.414216
 10
161.000000
 20
103.000000
 10
180.000000
 20
103.000000
 10
180.000000
 20
135.450000
 42
-1
 10
182.000000
 20
135.450000
 10
182.000000
 20
102.000000
 42
-0.414216
 10
181.000000
 20
101.000000
 10
162.000000
 20
101.000000
 10
162.000000
 20
70.000000
 10
181.000000
 20
70.000000
 42
-0.414216
 10
182.000000
 20
69.000000
 10
182.000000
 20
32.550000
 42
-1
 10
180.000000
 20
32.550000
 10
180.000000
 20
68.000000
 10
161.000000
 20
68.000000
 42
-0.414216
  0
LWPOLYLINE
  5
30
330
12
100
AcDbEntity
  8
0
100
AcDbPolyline
 43
0
 90
12
 70
1
 10
186.000000
 20
24.000000
 10
186.000000
 20
28.450000
 42
-1
 10
188.000000
 20
28.450000
 10
188.000000
 20
24.000000
 42
0.414214
 10
204.000000
 20
8.000000
 10
254.000000
 20
8.000000
 42
0.414214
 10
270.000000
 20
24.000000
 10
270.000000
 20
28.450000
 42
-1
 10
272.000000
 20
28.450000
 10
272.000000
 20
24.000000
 42
-0.414214
 10
254.000000
 20
6.000000
 10
204.000000
 20
6.000000
 42
-0.414214
  0
LWPOLYLINE
  5
31
330
12
100
AcDbEntity
  8
0
100
AcDbPolyline
 43
0
 90
4
 70
1
 10
186.000000
 20
32.550000
 10
186.000000
 20
81.950000
 42
-1
 10
188.000000
 20
81.950000
 10
188.000000
 20
32.550000
 42
-1
  0
LWPOLYLINE
  5
32
330
12
100
AcDbEntity
  8
0
100
AcDbPolyline
 43
0
 90
4
 70
1
 10
186.000000
 20
86.050000
 10
186.000000
 20
135.450000
 42
-1
 10
188.000000
 20
135.450000
 10
188.000000
 20
86.050000
 42
-1
  0
LWPOLYLINE
  5
33
330
12
100
AcDbEntity
  8
0
100
AcDbPolyline
 43
0
 90
12
 70
1
 10
186.000000
 20
139.550000
 10
186.000000
 20
144.000000
 42
-0.414214
 10
204.000000
 20
162.000000
 10
254.000000
 20
162.000000
 42
-0.414214
 10
272.000000
 20
144.000000
 10
272.000000
 20
139.550000
 42
-1
 10
270.000000
 20
139.550000
 10
270.000000
 20
144.000000
 42
0.414214
 10
254.000000
 20
160.000000
 10
204.000000
 20
160.000000
 42
0.414214
 10
188.000000
 20
144.000000
 10
188.000000
 20
139.550000
 42
-1
  0
LWPOLYLINE
  5
34
330
12
100
AcDbEntity
  8
0
100
AcDbPolyline
 43
0
 90
14
 70
1
 10
191.456202
 20
103.279998
 10
191.456202
 20
104.469997
 42
-0.414216
 10
192.256202
 20
105.269997
 10
194.670002
 20
105.269997
 10
194.670002
 20
111.219997
 42
-0.414389
 10
195.470477
 20
112.019998
 10
196.969527
 20
112.019998
 42
-0.41439
 10
197.770003
 20
111.219997
 10
197.770003
 20
96.519998
 42
-0.414389
 10
196.969527
 20
95.719997
 10
195.470002
 20
95.719997
 42
-0.414389
 10
194.670002
 20
96.520472
 10
194.670002
 20
102.479998
 10
192.256202
 20
102.479998
 42
-0.414216
  0
LWPOLYLINE
  5
35
330
12
100
AcDbEntity
  8
0
100
AcDbPolyline
 43
0
 90
8
 70
1
 10
203.270003
 20
96.520472
 10
203.270003
 20
111.219997
 42
-0.414389
 10
204.070477
 20
112.019998
 10
207.669527
 20
112.019998
 42
-0.41439
 10
208.470002
 20
111.219997
 10
208.470002
 20
96.519998
 42
-0.414389
 10
207.669527
 20
95.719997
 10
204.070003
 20
95.719997
 42
-0.414389
  0
LWPOLYLINE
  5
36
330
12
100
AcDbEntity
  8
0
100
AcDbPolyline
 43
0
 90
14
 70
1
 10
213.970003
 20
96.520472
 10
213.970003
 20
111.219997
 42
-0.414389
 10
214.770477
 20
112.019998
 10
216.269527
 20
112.019998
 42
-0.41439
 10
217.070002
 20
111.219997
 10
217.070002
 20
105.269997
 10
219.456202
 20
105.269997
 42
-0.414216
 10
220.256202
 20
104.469997
 10
220.256202
 20
103.279998
 42
-0.414216
 10
219.456202
 20
102.479998
 10
217.070002
 20
102.479998
 10
217.070002
 20
96.519998
 42
-0.414389
 10
216.269527
 20
95.719997
 10
214.770003
 20
95.719997
 42
-0.414389
  0
LWPOLYLINE
  5
37
330
12
100
AcDbEntity
  8
0
100
AcDbPolyline
 43
0
 90
16
 70
1
 10
250.000000
 20
69.000000
 10
250.000000
 20
102.000000
 42
-0.414216
 10
251.000000
 20
103.000000
 10
270.000000
 20
103.000000
 10
270.000000
 20
135.450000
 42
-1
 10
272.000000
 20
135.450000
 10
272.000000
 20
102.000000
 42
-0.414216
 10
271.000000
 20
101.000000
 10
252.000000
 20
101.000000
 10
252.000000
 20
70.000000
 10
271.000000
 20
70.000000
 42
-0.414216
 10
272.000000
 20
69.000000
 10
272.000000
 20
32.550000
 42
-1
 10
270.000000
 20
32.550000
 10
270.000000
 20
68.000000
 10
251.000000
 20
68.000000
 42
-0.414216
  0
LWPOLYLINE
  5
38
330
12
100
AcDbEntity
  8
0
100
AcDbPolyline
 43
0
 90
8
 70
1
 10
273.000000
 20
168.000000
 10
278.000000
 20
166.500000
 10
278.000000
 20
1.500000
 10
273.000002
 20
0.000000
 10
5.000000
 20
0.000000
 10
0.000000
 20
1.500000
 10
0.000000
 20
166.500000
 10
4.999995
 20
168.000000
  0
LWPOLYLINE
  5
39
330
12
100
AcDbEntity
  8
0
100
AcDbPolyline
 43
0
 90
4
 70
1
 10
3.425000
 20
4.000000
 42
-0.414214
 10
5.000000
 20
5.575000
 42
-0.414214
 10
6.575000
 20
4.000000
 42
-0.414214
 10
5.000000
 20
2.425000
 42
-0.414214
  0
LWPOLYLINE
  5
3A
330
12
100
AcDbEntity
  8
0
100
AcDbPolyline
 43
0
 90
4
 70
1
 10
7.950000
 20
29.000000
 42
-0.414217
 10
8.500000
 20
29.550000
 42
-0.414217
 10
9.050000
 20
29.000000
 42
-0.414217
 10
8.500000
 20
28.450000
 42
-0.414217
  0
LWPOLYLINE
  5
3B
330
12
100
AcDbEntity
  8
0
100
AcDbPolyline
 43
0
 90
4
 70
1
 10
7.950000
 20
30.500000
 42
-0.414217
 10
8.500000
 20
31.050000
 42
-0.414217
 10
9.050000
 20
30.500000
 42
-0.414217
 10
8.500000
 20
29.950000
 42
-0.414217
  0
LWPOLYLINE
  5
3C
330
12
100
AcDbEntity
  8
0
100
AcDbPolyline
 43
0
 90
4
 70
1
 10
7.950000
 20
32.000000
 42
-0.414217
 10
8.500000
 20
32.550000
 42
-0.414217
 10
9.050000
 20
32.000000
 42
-0.414217
 10
8.500000
 20
31.450000
 42
-0.414217
  0
LWPOLYLINE
  5
3D
330
12
100
AcDbEntity
  8
0
100
AcDbPolyline
 43
0
 90
4
 70
1
 10
7.950000
 20
82.500000
 42
-0.414217
 10
8.500000
 20
83.050000
 42
-0.414217
 10
9.050000
 20
82.500000
 42
-0.414217
 10
8.500000
 20
81.950000
 42
-0.414217
  0
LWPOLYLINE
  5
3E
330
12
100
AcDbEntity
  8
0
100
AcDbPolyline
 43
0
 90
4
 70
1
 10
7.950000
 20
84.000000
 42
-0.414217
 10
8.500000
 20
84.550000
 42
-0.414217
 10
9.050000
 20
84.000000
 42
-0.414217
 10
8.500000
 20
83.450000
 42
-0.414217
  0
LWPOLYLINE
  5
3F
330
12
100
AcDbEntity
  8
0
100
AcDbPolyline
 43
0
 90
4
 70
1
 10
7.950000
 20
85.500000
 42
-0.414217
 10
8.500000
 20
86.050000
 42
-0.414217
 10
9.050000
 20
85.500000
 42
-0.414217
 10
8.500000
 20
84.950000
 42
-0.414217
  0
LWPOLYLINE
  5
40
330
12
100
AcDbEntity
  8
0
100
AcDbPolyline
 43
0
 90
4
 70
1
 10
7.950000
 20
136.000000
 42
-0.414217
 10
8.500000
 20
136.550000
 42
-0.414217
 10
9.050000
 20
136.000000
 42
-0.414217
 10
8.500000
 20
135.450000
 42
-0.414217
  0
LWPOLYLINE
  5
41
330
12
100
AcDbEntity
  8
0
100
AcDbPolyline
 43
0
 90
4
 70
1
 10
7.950000
 20
137.500000
 42
-0.414217
 10
8.500000
 20
138.050000
 42
-0.414217
 10
9.050000
 20
137.500000
 42
-0.414217
 10
8.500000
 20
136.950000
 42
-0.414217
  0
LWPOLYLINE
  5
42
330
12
100
AcDbEntity
  8
0
100
AcDbPolyline
 43
0
 90
4
 70
1
 10
7.950000
 20
139.000000
 42
-0.414217
 10
8.500000
 20
139.550000
 42
-0.414217
 10
9.050000
 20
139.000000
 42
-0.414217
 10
8.500000
 20
138.450000
 42
-0.414217
  0
LWPOLYLINE
  5
43
330
12
100
AcDbEntity
  8
0
100
AcDbPolyline
 43
0
 90
4
 70
1
 10
11.550000
 20
142.000000
 42
-0.414215
 10
13.000000
 20
143.450000
 42
-0.414215
 10
14.450000
 20
142.000000
 42
-0.414215
 10
13.000000
 20
140.550000
 42
-0.414215
  0
LWPOLYLINE
  5
44
330
12
100
AcDbEntity
  8
0
100
AcDbPolyline
 43
0
 90
4
 70
1
 10
15.330000
 20
17.520000
 42
-0.414214
 10
17.530000
 20
19.720000
 42
-0.414214
 10
19.730000
 20
17.520000
 42
-0.414214
 10
17.530000
 20
15.320000
 42
-0.414214
  0
LWPOLYLINE
  5
45
330
12
100
AcDbEntity
  8
0
100
AcDbPolyline
 43
0
 90
4
 70
1
 10
15.330000
 20
150.520000
 42
-0.414214
 10
17.530000
 20
152.720000
 42
-0.414214
 10
19.730000
 20
150.520000
 42
-0.414214
 10
17.530000
 20
148.320000
 42
-0.414214
  0
LWPOLYLINE
  5
46
330
12
100
AcDbEntity
  8
0
100
AcDbPolyline
 43
0
 90
4
 70
1
 10
17.310000
 20
34.420000
 42
-0.414219
 10
17.610000
 20
34.720000
 42
-0.414219
 10
17.910000
 20
34.420000
 42
-0.414219
 10
17.610000
 20
34.120000
 42
-0.414219
  0
LWPOLYLINE
  5
47
330
12
100
AcDbEntity
  8
0
100
AcDbPolyline
 43
0
 90
4
 70
1
 10
17.310000
 20
42.290000
 42
-0.414219
 10
17.610000
 20
42.590000
 42
-0.414219
 10
17.910000
 20
42.290000
 42
-0.414219
 10
17.610000
 20
41.990000
 42
-0.414219
  0
LWPOLYLINE
  5
48
330
12
100
AcDbEntity
  8
0
100
AcDbPolyline
 43
0
 90
4
 70
1
 10
17.310000
 20
50.540000
 42
-0.414219
 10
17.610000
 20
50.840000
 42
-0.414219
 10
17.910000
 20
50.540000
 42
-0.414219
 10
17.610000
 20
50.240000
 42
-0.414219
  0
LWPOLYLINE
  5
49
330
12
100
AcDbEntity
  8
0
100
AcDbPolyline
 43
0
 90
4
 70
1
 10
21.760000
 20
75.310000
 42
-0.414219
 10
22.060000
 20
75.610000
 42
-0.414219
 10
22.360000
 20
75.310000
 42
-0.414219
 10
22.060000
 20
75.010000
 42
-0.414219
  0
LWPOLYLINE
  5
4A
330
12
100
AcDbEntity
  8
0
100
AcDbPolyline
 43
0
 90
4
 70
1
 10
24.680000
 20
62.610000
 42
-0.414219
 10
24.980000
 20
62.910000
 42
-0.414219
 10
25.280000
 20
62.610000
 42
-0.414219
 10
24.980000
 20
62.310000
 42
-0.414219
  0
LWPOLYLINE
  5
4B
330
12
100
AcDbEntity
  8
0
100
AcDbPolyline
 43
0
 90
4
 70
1
 10
25.560000
 20
39.750000
 42
-0.414219
 10
25.860000
 20
40.050000
 42
-0.414219
 10
26.160000
 20
39.750000
 42
-0.414219
 10
25.860000
 20
39.450000
 42
-0.414219
  0
LWPOLYLINE
  5
4C
330
12
100
AcDbEntity
  8
0
100
AcDbPolyline
 43
0
 90
4
 70
1
 10
25.560000
 20
46.100000
 42
-0.414219
 10
25.860000
 20
46.400000
 42
-0.414219
 10
26.160000
 20
46.100000
 42
-0.414219
 10
25.860000
 20
45.800000
 42
-0.414219
  0
LWPOLYLINE
  5
4D
330
12
100
AcDbEntity
  8
0
100
AcDbPolyline
 43
0
 90
4
 70
1
 10
25.560000
 20
65.780000
 42
-0.414219
 10
25.860000
 20
66.080000
 42
-0.414219
 10
26.160000
 20
65.780000
 42
-0.414219
 10
25.860000
 20
65.480000
 42
-0.414219
  0
LWPOLYLINE
  5
4E
330
12
100
AcDbEntity
  8
0
100
AcDbPolyline
 43
0
 90
4
 70
1
 10
25.560000
 20
84.960000
 42
-0.414219
 10
25.860000
 20
85.260000
 42
-0.414219
 10
26.160000
 20
84.960000
 42
-0.414219
 10
25.860000
 20
84.660000
 42
-0.414219
  0
LWPOLYLINE
  5
4F
330
12
100
AcDbEntity
  8
0
100
AcDbPolyline
 43
0
 90
4
 70
1
 10
25.800000
 20
146.430000
 42
-0.414216
 10
26.500000
 20
147.130000
 42
-0.414216
 10
27.200000
 20
146.430000
 42
-0.414216
 10
26.500000
 20
145.730000
 42
-0.414216
  0
LWPOLYLINE
  5
50
330
12
100
AcDbEntity
  8
0
100
AcDbPolyline
 43
0
 90
4
 70
1
 10
25.800000
 20
151.510000
 42
-0.414216
 10
26.500000
 20
152.210000
 42
-0.414216
 10
27.200000
 20
151.510000
 42
-0.414216
 10
26.500000
 20
150.810000
 42
-0.414216
  0
LWPOLYLINE
  5
51
330
12
100
AcDbEntity
  8
0
100
AcDbPolyline
 43
0
 90
4
 70
1
 10
26.580000
 20
32.890000
 42
-0.414217
 10
27.130000
 20
33.440000
 42
-0.414217
 10
27.680000
 20
32.890000
 42
-0.414217
 10
27.130000
 20
32.340000
 42
-0.414217
  0
LWPOLYLINE
  5
52
330
12
100
AcDbEntity
  8
0
100
AcDbPolyline
 43
0
 90
4
 70
1
 10
28.610000
 20
48.510000
 42
-0.414219
 10
28.910000
 20
48.810000
 42
-0.414219
 10
29.210000
 20
48.510000
 42
-0.414219
 10
28.910000
 20
48.210000
 42
-0.414219
  0
LWPOLYLINE
  5
53
330
12
100
AcDbEntity
  8
0
100
AcDbPolyline
 43
0
 90
4
 70
1
 10
30.490000
 20
23.240000
 42
-0.414218
 10
30.940000
 20
23.690000
 42
-0.414218
 10
31.390000
 20
23.240000
 42
-0.414218
 10
30.940000
 20
22.790000
 42
-0.414218
  0
LWPOLYLINE
  5
54
330
12
100
AcDbEntity
  8
0
100
AcDbPolyline
 43
0
 90
4
 70
1
 10
31.150000
 20
48.510000
 42
-0.414219
 10
31.450000
 20
48.810000
 42
-0.414219
 10
31.750000
 20
48.510000
 42
-0.414219
 10
31.450000
 20
48.210000
 42
-0.414219
  0
LWPOLYLINE
  5
55
330
12
100
AcDbEntity
  8
0
100
AcDbPolyline
 43
0
 90
4
 70
1
 10
32.680000
 20
56.390000
 42
-0.414219
 10
32.980000
 20
56.690000
 42
-0.414219
 10
33.280000
 20
56.390000
 42
-0.414219
 10
32.980000
 20
56.090000
 42
-0.414219
  0
LWPOLYLINE
  5
56
330
12
100
AcDbEntity
  8
0
100
AcDbPolyline
 43
0
 90
4
 70
1
 10
33.040000
 20
23.240000
 42
-0.414218
 10
33.490000
 20
23.690000
 42
-0.414218
 10
33.940000
 20
23.240000
 42
-0.414218
 10
33.490000
 20
22.790000
 42
-0.414218
  0
LWPOLYLINE
  5
57
330
12
100
AcDbEntity
  8
0
100
AcDbPolyline
 43
0
 90
4
 70
1
 10
33.820000
 20
82.290000
 42
-0.414219
 10
34.120000
 20
82.590000
 42
-0.414219
 10
34.420000
 20
82.290000
 42
-0.414219
 10
34.120000
 20
81.990000
 42
-0.414219
  0
LWPOLYLINE
  5
58
330
12
100
AcDbEntity
  8
0
100
AcDbPolyline
 43
0
 90
4
 70
1
 10
33.820000
 20
87.500000
 42
-0.414219
 10
34.120000
 20
87.800000
 42
-0.414219
 10
34.420000
 20
87.500000
 42
-0.414219
 10
34.120000
 20
87.200000
 42
-0.414219
  0
LWPOLYLINE
  5
59
330
12
100
AcDbEntity
  8
0
100
AcDbPolyline
 43
0
 90
4
 70
1
 10
34.250000
 20
61.970000
 42
-0.414219
 10
34.550000
 20
62.270000
 42
-0.414219
 10
34.850000
 20
61.970000
 42
-0.414219
 10
34.550000
 20
61.670000
 42
-0.414219
  0
LWPOLYLINE
  5
5A
330
12
100
AcDbEntity
  8
0
100
AcDbPolyline
 43
0
 90
4
 70
1
 10
35.090000
 20
18.160000
 42
-0.414219
 10
35.390000
 20
18.460000
 42
-0.414219
 10
35.690000
 20
18.160000
 42
-0.414219
 10
35.390000
 20
17.860000
 42
-0.414219
  0
LWPOLYLINE
  5
5B
330
12
100
AcDbEntity
  8
0
100
AcDbPolyline
 43
0
 90
4
 70
1
 10
35.340000
 20
78.050000
 42
-0.414219
 10
35.640000
 20
78.350000
 42
-0.414219
 10
35.940000
 20
78.050000
 42
-0.414219
 10
35.640000
 20
77.750000
 42
-0.414219
  0
LWPOLYLINE
  5
5C
330
12
100
AcDbEntity
  8
0
100
AcDbPolyline
 43
0
 90
4
 70
1
 10
35.960000
 20
146.430000
 42
-0.414216
 10
36.660000
 20
147.130000
 42
-0.414216
 10
37.360000
 20
146.430000
 42
-0.414216
 10
36.660000
 20
145.730000
 42
-0.414216
  0
LWPOLYLINE
  5
5D
330
12
100
AcDbEntity
  8
0
100
AcDbPolyline
 43
0
 90
4
 70
1
 10
35.960000
 20
151.510000
 42
-0.414216
 10
36.660000
 20
152.210000
 42
-0.414216
 10
37.360000
 20
151.510000
 42
-0.414216
 10
36.660000
 20
150.810000
 42
-0.414216
  0
LWPOLYLINE
  5
5E
330
12
100
AcDbEntity
  8
0
100
AcDbPolyline
 43
0
 90
4
 70
1
 10
36.740000
 20
32.890000
 42
-0.414217
 10
37.290000
 20
33.440000
 42
-0.414217
 10
37.840000
 20
32.890000
 42
-0.414217
 10
37.290000
 20
32.340000
 42
-0.414217
  0
LWPOLYLINE
  5
5F
330
12
100
AcDbEntity
  8
0
100
AcDbPolyline
 43
0
 90
4
 70
1
 10
36.990000
 20
53.080000
 42
-0.414219
 10
37.290000
 20
53.380000
 42
-0.414219
 10
37.590000
 20
53.080000
 42
-0.414219
 10
37.290000
 20
52.780000
 42
-0.414219
  0
LWPOLYLINE
  5
60
330
12
100
AcDbEntity
  8
0
100
AcDbPolyline
 43
0
 90
4
 70
1
 10
37.630000
 20
78.490000
 42
-0.414219
 10
37.930000
 20
78.790000
 42
-0.414219
 10
38.230000
 20
78.490000
 42
-0.414219
 10
37.930000
 20
78.190000
 42
-0.414219
  0
LWPOLYLINE
  5
61
330
12
100
AcDbEntity
  8
0
100
AcDbPolyline
 43
0
 90
4
 70
1
 10
38.900000
 20
21.770000
 42
-0.414219
 10
39.200000
 20
22.070000
 42
-0.414219
 10
39.500000
 20
21.770000
 42
-0.414219
 10
39.200000
 20
21.470000
 42
-0.414219
  0
LWPOLYLINE
  5
62
330
12
100
AcDbEntity
  8
0
100
AcDbPolyline
 43
0
 90
4
 70
1
 10
39.100000
 20
45.590000
 42
-0.414219
 10
39.400000
 20
45.890000
 42
-0.414219
 10
39.700000
 20
45.590000
 42
-0.414219
 10
39.400000
 20
45.290000
 42
-0.414219
  0
LWPOLYLINE
  5
63
330
12
100
AcDbEntity
  8
0
100
AcDbPolyline
 43
0
 90
4
 70
1
 10
39.530000
 20
41.020000
 42
-0.414219
 10
39.830000
 20
41.320000
 42
-0.414219
 10
40.130000
 20
41.020000
 42
-0.414219
 10
39.830000
 20
40.720000
 42
-0.414219
  0
LWPOLYLINE
  5
64
330
12
100
AcDbEntity
  8
0
100
AcDbPolyline
 43
0
 90
4
 70
1
 10
39.530000
 20
53.080000
 42
-0.414219
 10
39.830000
 20
53.380000
 42
-0.414219
 10
40.130000
 20
53.080000
 42
-0.414219
 10
39.830000
 20
52.780000
 42
-0.414219
  0
LWPOLYLINE
  5
65
330
12
100
AcDbEntity
  8
0
100
AcDbPolyline
 43
0
 90
4
 70
1
 10
39.530000
 20
59.440000
 42
-0.414219
 10
39.830000
 20
59.740000
 42
-0.414219
 10
40.130000
 20
59.440000
 42
-0.414219
 10
39.830000
 20
59.140000
 42
-0.414219
  0
LWPOLYLINE
  5
66
330
12
100
AcDbEntity
  8
0
100
AcDbPolyline
 43
0
 90
4
 70
1
 10
39.740000
 20
34.670000
 42
-0.414219
 10
40.040000
 20
34.970000
 42
-0.414219
 10
40.340000
 20
34.670000
 42
-0.414219
 10
40.040000
 20
34.370000
 42
-0.414219
  0
LWPOLYLINE
  5
67
330
12
100
AcDbEntity
  8
0
100
AcDbPolyline
 43
0
 90
4
 70
1
 10
40.170000
 20
78.490000
 42
-0.414219
 10
40.470000
 20
78.790000
 42
-0.414219
 10
40.770000
 20
78.490000
 42
-0.414219
 10
40.470000
 20
78.190000
 42
-0.414219
  0
LWPOLYLINE
  5
68
330
12
100
AcDbEntity
  8
0
100
AcDbPolyline
 43
0
 90
4
 70
1
 10
41.440000
 20
72.770000
 42
-0.414219
 10
41.740000
 20
73.070000
 42
-0.414219
 10
42.040000
 20
72.770000
 42
-0.414219
 10
41.740000
 20
72.470000
 42
-0.414219
  0
LWPOLYLINE
  5
69
330
12
100
AcDbEntity
  8
0
100
AcDbPolyline
 43
0
 90
4
 70
1
 10
42.080000
 20
53.080000
 42
-0.414219
 10
42.380000
 20
53.380000
 42
-0.414219
 10
42.680000
 20
53.080000
 42
-0.414219
 10
42.380000
 20
52.780000
 42
-0.414219
  0
LWPOLYLINE
  5
6A
330
12
100
AcDbEntity
  8
0
100
AcDbPolyline
 43
0
 90
4
 70
1
 10
42.080000
 20
57.280000
 42
-0.414219
 10
42.380000
 20
57.580000
 42
-0.414219
 10
42.680000
 20
57.280000
 42
-0.414219
 10
42.380000
 20
56.980000
 42
-0.414219
  0
LWPOLYLINE
  5
6B
330
12
100
AcDbEntity
  8
0
100
AcDbPolyline
 43
0
 90
4
 70
1
 10
42.080000
 20
78.490000
 42
-0.414219
 10
42.380000
 20
78.790000
 42
-0.414219
 10
42.680000
 20
78.490000
 42
-0.414219
 10
42.380000
 20
78.190000
 42
-0.414219
  0
LWPOLYLINE
  5
6C
330
12
100
AcDbEntity
  8
0
100
AcDbPolyline
 43
0
 90
4
 70
1
 10
42.710000
 20
18.160000
 42
-0.414219
 10
43.010000
 20
18.460000
 42
-0.414219
 10
43.310000
 20
18.160000
 42
-0.414219
 10
43.010000
 20
17.860000
 42
-0.414219
  0
LWPOLYLINE
  5
6D
330
12
100
AcDbEntity
  8
0
100
AcDbPolyline
 43
0
 90
4
 70
1
 10
42.840000
 20
22.480000
 42
-0.414219
 10
43.140000
 20
22.780000
 42
-0.414219
 10
43.440000
 20
22.480000
 42
-0.414219
 10
43.140000
 20
22.180000
 42
-0.414219
  0
LWPOLYLINE
  5
6E
330
12
100
AcDbEntity
  8
0
100
AcDbPolyline
 43
0
 90
4
 70
1
 10
43.630000
 20
114.680000
 42
-0.414216
 10
44.280000
 20
115.330000
 42
-0.414216
 10
44.930000
 20
114.680000
 42
-0.414216
 10
44.280000
 20
114.030000
 42
-0.414216
  0
LWPOLYLINE
  5
6F
330
12
100
AcDbEntity
  8
0
100
AcDbPolyline
 43
0
 90
4
 70
1
 10
43.630000
 20
126.110000
 42
-0.414216
 10
44.280000
 20
126.760000
 42
-0.414216
 10
44.930000
 20
126.110000
 42
-0.414216
 10
44.280000
 20
125.460000
 42
-0.414216
  0
LWPOLYLINE
  5
70
330
12
100
AcDbEntity
  8
0
100
AcDbPolyline
 43
0
 90
4
 70
1
 10
43.630000
 20
137.540000
 42
-0.414216
 10
44.280000
 20
138.190000
 42
-0.414216
 10
44.930000
 20
137.540000
 42
-0.414216
 10
44.280000
 20
136.890000
 42
-0.414216
  0
LWPOLYLINE
  5
71
330
12
100
AcDbEntity
  8
0
100
AcDbPolyline
 43
0
 90
4
 70
1
 10
43.630000
 20
148.970000
 42
-0.414216
 10
44.280000
 20
149.620000
 42
-0.414216
 10
44.930000
 20
148.970000
 42
-0.414216
 10
44.280000
 20
148.320000
 42
-0.414216
  0
LWPOLYLINE
  5
72
330
12
100
AcDbEntity
  8
0
100
AcDbPolyline
 43
0
 90
4
 70
1
 10
44.620000
 20
53.080000
 42
-0.414219
 10
44.920000
 20
53.380000
 42
-0.414219
 10
45.220000
 20
53.080000
 42
-0.414219
 10
44.920000
 20
52.780000
 42
-0.414219
  0
LWPOLYLINE
  5
73
330
12
100
AcDbEntity
  8
0
100
AcDbPolyline
 43
0
 90
4
 70
1
 10
45.120000
 20
89.280000
 42
-0.414219
 10
45.420000
 20
89.580000
 42
-0.414219
 10
45.720000
 20
89.280000
 42
-0.414219
 10
45.420000
 20
88.980000
 42
-0.414219
  0
LWPOLYLINE
  5
74
330
12
100
AcDbEntity
  8
0
100
AcDbPolyline
 43
0
 90
4
 70
1
 10
45.250000
 20
42.670000
 42
-0.414219
 10
45.550000
 20
42.970000
 42
-0.414219
 10
45.850000
 20
42.670000
 42
-0.414219
 10
45.550000
 20
42.370000
 42
-0.414219
  0
LWPOLYLINE
  5
75
330
12
100
AcDbEntity
  8
0
100
AcDbPolyline
 43
0
 90
4
 70
1
 10
45.250000
 20
44.190000
 42
-0.414219
 10
45.550000
 20
44.490000
 42
-0.414219
 10
45.850000
 20
44.190000
 42
-0.414219
 10
45.550000
 20
43.890000
 42
-0.414219
  0
LWPOLYLINE
  5
76
330
12
100
AcDbEntity
  8
0
100
AcDbPolyline
 43
0
 90
4
 70
1
 10
46.800000
 20
73.990000
 42
-0.414214
 10
49.000000
 20
76.190000
 42
-0.414214
 10
51.200000
 20
73.990000
 42
-0.414214
 10
49.000000
 20
71.790000
 42
-0.414214
  0
LWPOLYLINE
  5
77
330
12
100
AcDbEntity
  8
0
100
AcDbPolyline
 43
0
 90
4
 70
1
 10
47.160000
 20
53.080000
 42
-0.414219
 10
47.460000
 20
53.380000
 42
-0.414219
 10
47.760000
 20
53.080000
 42
-0.414219
 10
47.460000
 20
52.780000
 42
-0.414219
  0
LWPOLYLINE
  5
78
330
12
100
AcDbEntity
  8
0
100
AcDbPolyline
 43
0
 90
4
 70
1
 10
47.160000
 20
58.170000
 42
-0.414219
 10
47.460000
 20
58.470000
 42
-0.414219
 10
47.760000
 20
58.170000
 42
-0.414219
 10
47.460000
 20
57.870000
 42
-0.414219
  0
LWPOLYLINE
  5
79
330
12
100
AcDbEntity
  8
0
100
AcDbPolyline
 43
0
 90
4
 70
1
 10
47.160000
 20
60.450000
 42
-0.414219
 10
47.460000
 20
60.750000
 42
-0.414219
 10
47.760000
 20
60.450000
 42
-0.414219
 10
47.460000
 20
60.150000
 42
-0.414219
  0
LWPOLYLINE
  5
7A
330
12
100
AcDbEntity
  8
0
100
AcDbPolyline
 43
0
 90
4
 70
1
 10
47.160000
 20
62.230000
 42
-0.414219
 10
47.460000
 20
62.530000
 42
-0.414219
 10
47.760000
 20
62.230000
 42
-0.414219
 10
47.460000
 20
61.930000
 42
-0.414219
  0
LWPOLYLINE
  5
7B
330
12
100
AcDbEntity
  8
0
100
AcDbPolyline
 43
0
 90
4
 70
1
 10
47.790000
 20
44.190000
 42
-0.414219
 10
48.090000
 20
44.490000
 42
-0.414219
 10
48.390000
 20
44.190000
 42
-0.414219
 10
48.090000
 20
43.890000
 42
-0.414219
  0
LWPOLYLINE
  5
7C
330
12
100
AcDbEntity
  8
0
100
AcDbPolyline
 43
0
 90
4
 70
1
 10
49.060000
 20
52.880000
 42
-0.414219
 10
49.360000
 20
53.180000
 42
-0.414219
 10
49.660000
 20
52.880000
 42
-0.414219
 10
49.360000
 20
52.580000
 42
-0.414219
  0
LWPOLYLINE
  5
7D
330
12
100
AcDbEntity
  8
0
100
AcDbPolyline
 43
0
 90
4
 70
1
 10
50.330000
 20
18.160000
 42
-0.414219
 10
50.630000
 20
18.460000
 42
-0.414219
 10
50.930000
 20
18.160000
 42
-0.414219
 10
50.630000
 20
17.860000
 42
-0.414219
  0
LWPOLYLINE
  5
7E
330
12
100
AcDbEntity
  8
0
100
AcDbPolyline
 43
0
 90
4
 70
1
 10
51.600000
 20
36.580000
 42
-0.414219
 10
51.900000
 20
36.880000
 42
-0.414219
 10
52.200000
 20
36.580000
 42
-0.414219
 10
51.900000
 20
36.280000
 42
-0.414219
  0
LWPOLYLINE
  5
7F
330
12
100
AcDbEntity
  8
0
100
AcDbPolyline
 43
0
 90
4
 70
1
 10
51.600000
 20
41.020000
 42
-0.414219
 10
51.900000
 20
41.320000
 42
-0.414219
 10
52.200000
 20
41.020000
 42
-0.414219
 10
51.900000
 20
40.720000
 42
-0.414219
  0
LWPOLYLINE
  5
80
330
12
100
AcDbEntity
  8
0
100
AcDbPolyline
 43
0
 90
4
 70
1
 10
51.600000
 20
45.900000
 42
-0.414219
 10
51.900000
 20
46.200000
 42
-0.414219
 10
52.200000
 20
45.900000
 42
-0.414219
 10
51.900000
 20
45.600000
 42
-0.414219
  0
LWPOLYLINE
  5
81
330
12
100
AcDbEntity
  8
0
100
AcDbPolyline
 43
0
 90
4
 70
1
 10
51.600000
 20
96.900000
 42
-0.414219
 10
51.900000
 20
97.200000
 42
-0.414219
 10
52.200000
 20
96.900000
 42
-0.414219
 10
51.900000
 20
96.600000
 42
-0.414219
  0
LWPOLYLINE
  5
82
330
12
100
AcDbEntity
  8
0
100
AcDbPolyline
 43
0
 90
4
 70
1
 10
51.600000
 20
98.810000
 42
-0.414219
 10
51.900000
 20
99.110000
 42
-0.414219
 10
52.200000
 20
98.810000
 42
-0.414219
 10
51.900000
 20
98.510000
 42
-0.414219
  0
LWPOLYLINE
  5
83
330
12
100
AcDbEntity
  8
0
100
AcDbPolyline
 43
0
 90
4
 70
1
 10
52.230000
 20
48.010000
 42
-0.414219
 10
52.530000
 20
48.310000
 42
-0.414219
 10
52.830000
 20
48.010000
 42
-0.414219
 10
52.530000
 20
47.710000
 42
-0.414219
  0
LWPOLYLINE
  5
84
330
12
100
AcDbEntity
  8
0
100
AcDbPolyline
 43
0
 90
4
 70
1
 10
53.510000
 20
17.520000
 42
-0.414219
 10
53.810000
 20
17.820000
 42
-0.414219
 10
54.110000
 20
17.520000
 42
-0.414219
 10
53.810000
 20
17.220000
 42
-0.414219
  0
LWPOLYLINE
  5
85
330
12
100
AcDbEntity
  8
0
100
AcDbPolyline
 43
0
 90
4
 70
1
 10
53.510000
 20
31.930000
 42
-0.414219
 10
53.810000
 20
32.230000
 42
-0.414219
 10
54.110000
 20
31.930000
 42
-0.414219
 10
53.810000
 20
31.630000
 42
-0.414219
  0
LWPOLYLINE
  5
86
330
12
100
AcDbEntity
  8
0
100
AcDbPolyline
 43
0
 90
4
 70
1
 10
53.510000
 20
96.900000
 42
-0.414219
 10
53.810000
 20
97.200000
 42
-0.414219
 10
54.110000
 20
96.900000
 42
-0.414219
 10
53.810000
 20
96.600000
 42
-0.414219
  0
LWPOLYLINE
  5
87
330
12
100
AcDbEntity
  8
0
100
AcDbPolyline
 43
0
 90
4
 70
1
 10
53.510000
 20
98.810000
 42
-0.414219
 10
53.810000
 20
99.110000
 42
-0.414219
 10
54.110000
 20
98.810000
 42
-0.414219
 10
53.810000
 20
98.510000
 42
-0.414219
  0
LWPOLYLINE
  5
88
330
12
100
AcDbEntity
  8
0
100
AcDbPolyline
 43
0
 90
4
 70
1
 10
55.410000
 20
23.880000
 42
-0.414219
 10
55.710000
 20
24.180000
 42
-0.414219
 10
56.010000
 20
23.880000
 42
-0.414219
 10
55.710000
 20
23.580000
 42
-0.414219
  0
LWPOLYLINE
  5
89
330
12
100
AcDbEntity
  8
0
100
AcDbPolyline
 43
0
 90
4
 70
1
 10
55.410000
 20
27.050000
 42
-0.414219
 10
55.710000
 20
27.350000
 42
-0.414219
 10
56.010000
 20
27.050000
 42
-0.414219
 10
55.710000
 20
26.750000
 42
-0.414219
  0
LWPOLYLINE
  5
8A
330
12
100
AcDbEntity
  8
0
100
AcDbPolyline
 43
0
 90
4
 70
1
 10
55.410000
 20
58.170000
 42
-0.414219
 10
55.710000
 20
58.470000
 42
-0.414219
 10
56.010000
 20
58.170000
 42
-0.414219
 10
55.710000
 20
57.870000
 42
-0.414219
  0
LWPOLYLINE
  5
8B
330
12
100
AcDbEntity
  8
0
100
AcDbPolyline
 43
0
 90
4
 70
1
 10
55.410000
 20
96.900000
 42
-0.414219
 10
55.710000
 20
97.200000
 42
-0.414219
 10
56.010000
 20
96.900000
 42
-0.414219
 10
55.710000
 20
96.600000
 42
-0.414219
  0
LWPOLYLINE
  5
8C
330
12
100
AcDbEntity
  8
0
100
AcDbPolyline
 43
0
 90
4
 70
1
 10
55.410000
 20
98.810000
 42
-0.414219
 10
55.710000
 20
99.110000
 42
-0.414219
 10
56.010000
 20
98.810000
 42
-0.414219
 10
55.710000
 20
98.510000
 42
-0.414219
  0
LWPOLYLINE
  5
8D
330
12
100
AcDbEntity
  8
0
100
AcDbPolyline
 43
0
 90
4
 70
1
 10
56.050000
 20
64.510000
 42
-0.414219
 10
56.350000
 20
64.810000
 42
-0.414219
 10
56.650000
 20
64.510000
 42
-0.414219
 10
56.350000
 20
64.210000
 42
-0.414219
  0
LWPOLYLINE
  5
8E
330
12
100
AcDbEntity
  8
0
100
AcDbPolyline
 43
0
 90
4
 70
1
 10
57.320000
 20
32.760000
 42
-0.414219
 10
57.620000
 20
33.060000
 42
-0.414219
 10
57.920000
 20
32.760000
 42
-0.414219
 10
57.620000
 20
32.460000
 42
-0.414219
  0
LWPOLYLINE
  5
8F
330
12
100
AcDbEntity
  8
0
100
AcDbPolyline
 43
0
 90
4
 70
1
 10
57.320000
 20
35.310000
 42
-0.414219
 10
57.620000
 20
35.610000
 42
-0.414219
 10
57.920000
 20
35.310000
 42
-0.414219
 10
57.620000
 20
35.010000
 42
-0.414219
  0
LWPOLYLINE
  5
90
330
12
100
AcDbEntity
  8
0
100
AcDbPolyline
 43
0
 90
4
 70
1
 10
57.320000
 20
37.840000
 42
-0.414219
 10
57.620000
 20
38.140000
 42
-0.414219
 10
57.920000
 20
37.840000
 42
-0.414219
 10
57.620000
 20
37.540000
 42
-0.414219
  0
LWPOLYLINE
  5
91
330
12
100
AcDbEntity
  8
0
100
AcDbPolyline
 43
0
 90
4
 70
1
 10
57.320000
 20
42.920000
 42
-0.414219
 10
57.620000
 20
43.220000
 42
-0.414219
 10
57.920000
 20
42.920000
 42
-0.414219
 10
57.620000
 20
42.620000
 42
-0.414219
  0
LWPOLYLINE
  5
92
330
12
100
AcDbEntity
  8
0
100
AcDbPolyline
 43
0
 90
4
 70
1
 10
57.320000
 20
45.470000
 42
-0.414219
 10
57.620000
 20
45.770000
 42
-0.414219
 10
57.920000
 20
45.470000
 42
-0.414219
 10
57.620000
 20
45.170000
 42
-0.414219
  0
LWPOLYLINE
  5
93
330
12
100
AcDbEntity
  8
0
100
AcDbPolyline
 43
0
 90
4
 70
1
 10
57.320000
 20
96.900000
 42
-0.414219
 10
57.620000
 20
97.200000
 42
-0.414219
 10
57.920000
 20
96.900000
 42
-0.414219
 10
57.620000
 20
96.600000
 42
-0.414219
  0
LWPOLYLINE
  5
94
330
12
100
AcDbEntity
  8
0
100
AcDbPolyline
 43
0
 90
4
 70
1
 10
57.320000
 20
98.810000
 42
-0.414219
 10
57.620000
 20
99.110000
 42
-0.414219
 10
57.920000
 20
98.810000
 42
-0.414219
 10
57.620000
 20
98.510000
 42
-0.414219
  0
LWPOLYLINE
  5
95
330
12
100
AcDbEntity
  8
0
100
AcDbPolyline
 43
0
 90
4
 70
1
 10
57.950000
 20
48.010000
 42
-0.414219
 10
58.250000
 20
48.310000
 42
-0.414219
 10
58.550000
 20
48.010000
 42
-0.414219
 10
58.250000
 20
47.710000
 42
-0.414219
  0
LWPOLYLINE
  5
96
330
12
100
AcDbEntity
  8
0
100
AcDbPolyline
 43
0
 90
4
 70
1
 10
58.590000
 20
19.430000
 42
-0.414219
 10
58.890000
 20
19.730000
 42
-0.414219
 10
59.190000
 20
19.430000
 42
-0.414219
 10
58.890000
 20
19.130000
 42
-0.414219
  0
LWPOLYLINE
  5
97
330
12
100
AcDbEntity
  8
0
100
AcDbPolyline
 43
0
 90
4
 70
1
 10
59.220000
 20
96.900000
 42
-0.414219
 10
59.520000
 20
97.200000
 42
-0.414219
 10
59.820000
 20
96.900000
 42
-0.414219
 10
59.520000
 20
96.600000
 42
-0.414219
  0
LWPOLYLINE
  5
98
330
12
100
AcDbEntity
  8
0
100
AcDbPolyline
 43
0
 90
4
 70
1
 10
59.220000
 20
98.810000
 42
-0.414219
 10
59.520000
 20
99.110000
 42
-0.414219
 10
59.820000
 20
98.810000
 42
-0.414219
 10
59.520000
 20
98.510000
 42
-0.414219
  0
LWPOLYLINE
  5
99
330
12
100
AcDbEntity
  8
0
100
AcDbPolyline
 43
0
 90
4
 70
1
 10
59.860000
 20
23.880000
 42
-0.414219
 10
60.160000
 20
24.180000
 42
-0.414219
 10
60.460000
 20
23.880000
 42
-0.414219
 10
60.160000
 20
23.580000
 42
-0.414219
  0
LWPOLYLINE
  5
9A
330
12
100
AcDbEntity
  8
0
100
AcDbPolyline
 43
0
 90
4
 70
1
 10
60.490000
 20
17.520000
 42
-0.414219
 10
60.790000
 20
17.820000
 42
-0.414219
 10
61.090000
 20
17.520000
 42
-0.414219
 10
60.790000
 20
17.220000
 42
-0.414219
  0
LWPOLYLINE
  5
9B
330
12
100
AcDbEntity
  8
0
100
AcDbPolyline
 43
0
 90
4
 70
1
 10
61.120000
 20
66.420000
 42
-0.414219
 10
61.420000
 20
66.720000
 42
-0.414219
 10
61.720000
 20
66.420000
 42
-0.414219
 10
61.420000
 20
66.120000
 42
-0.414219
  0
LWPOLYLINE
  5
9C
330
12
100
AcDbEntity
  8
0
100
AcDbPolyline
 43
0
 90
4
 70
1
 10
61.330000
 20
51.310000
 42
-0.414219
 10
61.630000
 20
51.610000
 42
-0.414219
 10
61.930000
 20
51.310000
 42
-0.414219
 10
61.630000
 20
51.010000
 42
-0.414219
  0
LWPOLYLINE
  5
9D
330
12
100
AcDbEntity
  8
0
100
AcDbPolyline
 43
0
 90
4
 70
1
 10
61.760000
 20
53.080000
 42
-0.414219
 10
62.060000
 20
53.380000
 42
-0.414219
 10
62.360000
 20
53.080000
 42
-0.414219
 10
62.060000
 20
52.780000
 42
-0.414219
  0
LWPOLYLINE
  5
9E
330
12
100
AcDbEntity
  8
0
100
AcDbPolyline
 43
0
 90
4
 70
1
 10
61.760000
 20
56.260000
 42
-0.414219
 10
62.060000
 20
56.560000
 42
-0.414219
 10
62.360000
 20
56.260000
 42
-0.414219
 10
62.060000
 20
55.960000
 42
-0.414219
  0
LWPOLYLINE
  5
9F
330
12
100
AcDbEntity
  8
0
100
AcDbPolyline
 43
0
 90
4
 70
1
 10
63.030000
 20
17.520000
 42
-0.414219
 10
63.330000
 20
17.820000
 42
-0.414219
 10
63.630000
 20
17.520000
 42
-0.414219
 10
63.330000
 20
17.220000
 42
-0.414219
  0
LWPOLYLINE
  5
A0
330
12
100
AcDbEntity
  8
0
100
AcDbPolyline
 43
0
 90
4
 70
1
 10
63.030000
 20
34.030000
 42
-0.414219
 10
63.330000
 20
34.330000
 42
-0.414219
 10
63.630000
 20
34.030000
 42
-0.414219
 10
63.330000
 20
33.730000
 42
-0.414219
  0
LWPOLYLINE
  5
A1
330
12
100
AcDbEntity
  8
0
100
AcDbPolyline
 43
0
 90
4
 70
1
 10
63.030000
 20
36.580000
 42
-0.414219
 10
63.330000
 20
36.880000
 42
-0.414219
 10
63.630000
 20
36.580000
 42
-0.414219
 10
63.330000
 20
36.280000
 42
-0.414219
  0
LWPOLYLINE
  5
A2
330
12
100
AcDbEntity
  8
0
100
AcDbPolyline
 43
0
 90
4
 70
1
 10
64.500000
 20
46.100000
 42
-0.414219
 10
64.800000
 20
46.400000
 42
-0.414219
 10
65.100000
 20
46.100000
 42
-0.414219
 10
64.800000
 20
45.800000
 42
-0.414219
  0
LWPOLYLINE
  5
A3
330
12
100
AcDbEntity
  8
0
100
AcDbPolyline
 43
0
 90
4
 70
1
 10
64.940000
 20
30.860000
 42
-0.414219
 10
65.240000
 20
31.160000
 42
-0.414219
 10
65.540000
 20
30.860000
 42
-0.414219
 10
65.240000
 20
30.560000
 42
-0.414219
  0
LWPOLYLINE
  5
A4
330
12
100
AcDbEntity
  8
0
100
AcDbPolyline
 43
0
 90
4
 70
1
 10
64.940000
 20
42.920000
 42
-0.414219
 10
65.240000
 20
43.220000
 42
-0.414219
 10
65.540000
 20
42.920000
 42
-0.414219
 10
65.240000
 20
42.620000
 42
-0.414219
  0
LWPOLYLINE
  5
A5
330
12
100
AcDbEntity
  8
0
100
AcDbPolyline
 43
0
 90
4
 70
1
 10
65.320000
 20
62.100000
 42
-0.414219
 10
65.620000
 20
62.400000
 42
-0.414219
 10
65.920000
 20
62.100000
 42
-0.414219
 10
65.620000
 20
61.800000
 42
-0.414219
  0
LWPOLYLINE
  5
A6
330
12
100
AcDbEntity
  8
0
100
AcDbPolyline
 43
0
 90
4
 70
1
 10
65.570000
 20
57.530000
 42
-0.414219
 10
65.870000
 20
57.830000
 42
-0.414219
 10
66.170000
 20
57.530000
 42
-0.414219
 10
65.870000
 20
57.230000
 42
-0.414219
  0
LWPOLYLINE
  5
A7
330
12
100
AcDbEntity
  8
0
100
AcDbPolyline
 43
0
 90
4
 70
1
 10
65.700000
 20
45.470000
 42
-0.414219
 10
66.000000
 20
45.770000
 42
-0.414219
 10
66.300000
 20
45.470000
 42
-0.414219
 10
66.000000
 20
45.170000
 42
-0.414219
  0
LWPOLYLINE
  5
A8
330
12
100
AcDbEntity
  8
0
100
AcDbPolyline
 43
0
 90
4
 70
1
 10
65.770000
 20
48.970000
 42
-0.414219
 10
66.070000
 20
49.270000
 42
-0.414219
 10
66.370000
 20
48.970000
 42
-0.414219
 10
66.070000
 20
48.670000
 42
-0.414219
  0
LWPOLYLINE
  5
A9
330
12
100
AcDbEntity
  8
0
100
AcDbPolyline
 43
0
 90
4
 70
1
 10
66.200000
 20
19.430000
 42
-0.414219
 10
66.500000
 20
19.730000
 42
-0.414219
 10
66.800000
 20
19.430000
 42
-0.414219
 10
66.500000
 20
19.130000
 42
-0.414219
  0
LWPOLYLINE
  5
AA
330
12
100
AcDbEntity
  8
0
100
AcDbPolyline
 43
0
 90
4
 70
1
 10
66.200000
 20
25.780000
 42
-0.414219
 10
66.500000
 20
26.080000
 42
-0.414219
 10
66.800000
 20
25.780000
 42
-0.414219
 10
66.500000
 20
25.480000
 42
-0.414219
  0
LWPOLYLINE
  5
AB
330
12
100
AcDbEntity
  8
0
100
AcDbPolyline
 43
0
 90
4
 70
1
 10
66.460000
 20
53.080000
 42
-0.414219
 10
66.760000
 20
53.380000
 42
-0.414219
 10
67.060000
 20
53.080000
 42
-0.414219
 10
66.760000
 20
52.780000
 42
-0.414219
  0
LWPOLYLINE
  5
AC
330
12
100
AcDbEntity
  8
0
100
AcDbPolyline
 43
0
 90
4
 70
1
 10
66.490000
 20
114.680000
 42
-0.414216
 10
67.140000
 20
115.330000
 42
-0.414216
 10
67.790000
 20
114.680000
 42
-0.414216
 10
67.140000
 20
114.030000
 42
-0.414216
  0
LWPOLYLINE
  5
AD
330
12
100
AcDbEntity
  8
0
100
AcDbPolyline
 43
0
 90
4
 70
1
 10
66.490000
 20
126.110000
 42
-0.414216
 10
67.140000
 20
126.760000
 42
-0.414216
 10
67.790000
 20
126.110000
 42
-0.414216
 10
67.140000
 20
125.460000
 42
-0.414216
  0
LWPOLYLINE
  5
AE
330
12
100
AcDbEntity
  8
0
100
AcDbPolyline
 43
0
 90
4
 70
1
 10
66.490000
 20
137.540000
 42
-0.414216
 10
67.140000
 20
138.190000
 42
-0.414216
 10
67.790000
 20
137.540000
 42
-0.414216
 10
67.140000
 20
136.890000
 42
-0.414216
  0
LWPOLYLINE
  5
AF
330
12
100
AcDbEntity
  8
0
100
AcDbPolyline
 43
0
 90
4
 70
1
 10
66.490000
 20
148.970000
 42
-0.414216
 10
67.140000
 20
149.620000
 42
-0.414216
 10
67.790000
 20
148.970000
 42
-0.414216
 10
67.140000
 20
148.320000
 42
-0.414216
  0
LWPOLYLINE
  5
B0
330
12
100
AcDbEntity
  8
0
100
AcDbPolyline
 43
0
 90
4
 70
1
 10
66.840000
 20
32.760000
 42
-0.414219
 10
67.140000
 20
33.060000
 42
-0.414219
 10
67.440000
 20
32.760000
 42
-0.414219
 10
67.140000
 20
32.460000
 42
-0.414219
  0
LWPOLYLINE
  5
B1
330
12
100
AcDbEntity
  8
0
100
AcDbPolyline
 43
0
 90
4
 70
1
 10
66.840000
 20
35.310000
 42
-0.414219
 10
67.140000
 20
35.610000
 42
-0.414219
 10
67.440000
 20
35.310000
 42
-0.414219
 10
67.140000
 20
35.010000
 42
-0.414219
  0
LWPOLYLINE
  5
B2
330
12
100
AcDbEntity
  8
0
100
AcDbPolyline
 43
0
 90
4
 70
1
 10
66.840000
 20
37.840000
 42
-0.414219
 10
67.140000
 20
38.140000
 42
-0.414219
 10
67.440000
 20
37.840000
 42
-0.414219
 10
67.140000
 20
37.540000
 42
-0.414219
  0
LWPOLYLINE
  5
B3
330
12
100
AcDbEntity
  8
0
100
AcDbPolyline
 43
0
 90
4
 70
1
 10
66.840000
 20
40.380000
 42
-0.414219
 10
67.140000
 20
40.680000
 42
-0.414219
 10
67.440000
 20
40.380000
 42
-0.414219
 10
67.140000
 20
40.080000
 42
-0.414219
  0
LWPOLYLINE
  5
B4
330
12
100
AcDbEntity
  8
0
100
AcDbPolyline
 43
0
 90
4
 70
1
 10
66.840000
 20
42.290000
 42
-0.414219
 10
67.140000
 20
42.590000
 42
-0.414219
 10
67.440000
 20
42.290000
 42
-0.414219
 10
67.140000
 20
41.990000
 42
-0.414219
  0
LWPOLYLINE
  5
B5
330
12
100
AcDbEntity
  8
0
100
AcDbPolyline
 43
0
 90
4
 70
1
 10
67.470000
 20
61.970000
 42
-0.414219
 10
67.770000
 20
62.270000
 42
-0.414219
 10
68.070000
 20
61.970000
 42
-0.414219
 10
67.770000
 20
61.670000
 42
-0.414219
  0
LWPOLYLINE
  5
B6
330
12
100
AcDbEntity
  8
0
100
AcDbPolyline
 43
0
 90
4
 70
1
 10
69.380000
 20
44.190000
 42
-0.414219
 10
69.680000
 20
44.490000
 42
-0.414219
 10
69.980000
 20
44.190000
 42
-0.414219
 10
69.680000
 20
43.890000
 42
-0.414219
  0
LWPOLYLINE
  5
B7
330
12
100
AcDbEntity
  8
0
100
AcDbPolyline
 43
0
 90
4
 70
1
 10
69.380000
 20
53.720000
 42
-0.414219
 10
69.680000
 20
54.020000
 42
-0.414219
 10
69.980000
 20
53.720000
 42
-0.414219
 10
69.680000
 20
53.420000
 42
-0.414219
  0
LWPOLYLINE
  5
B8
330
12
100
AcDbEntity
  8
0
100
AcDbPolyline
 43
0
 90
4
 70
1
 10
69.380000
 20
60.070000
 42
-0.414219
 10
69.680000
 20
60.370000
 42
-0.414219
 10
69.980000
 20
60.070000
 42
-0.414219
 10
69.680000
 20
59.770000
 42
-0.414219
  0
LWPOLYLINE
  5
B9
330
12
100
AcDbEntity
  8
0
100
AcDbPolyline
 43
0
 90
4
 70
1
 10
71.490000
 20
32.760000
 42
-0.414219
 10
71.790000
 20
33.060000
 42
-0.414219
 10
72.090000
 20
32.760000
 42
-0.414219
 10
71.790000
 20
32.460000
 42
-0.414219
  0
LWPOLYLINE
  5
BA
330
12
100
AcDbEntity
  8
0
100
AcDbPolyline
 43
0
 90
4
 70
1
 10
71.490000
 20
40.380000
 42
-0.414219
 10
71.790000
 20
40.680000
 42
-0.414219
 10
72.090000
 20
40.380000
 42
-0.414219
 10
71.790000
 20
40.080000
 42
-0.414219
  0
LWPOLYLINE
  5
BB
330
12
100
AcDbEntity
  8
0
100
AcDbPolyline
 43
0
 90
4
 70
1
 10
71.920000
 20
53.720000
 42
-0.414219
 10
72.220000
 20
54.020000
 42
-0.414219
 10
72.520000
 20
53.720000
 42
-0.414219
 10
72.220000
 20
53.420000
 42
-0.414219
  0
LWPOLYLINE
  5
BC
330
12
100
AcDbEntity
  8
0
100
AcDbPolyline
 43
0
 90
4
 70
1
 10
71.920000
 20
59.440000
 42
-0.414219
 10
72.220000
 20
59.740000
 42
-0.414219
 10
72.520000
 20
59.440000
 42
-0.414219
 10
72.220000
 20
59.140000
 42
-0.414219
  0
LWPOLYLINE
  5
BD
330
12
100
AcDbEntity
  8
0
100
AcDbPolyline
 43
0
 90
4
 70
1
 10
74.460000
 20
56.510000
 42
-0.414219
 10
74.760000
 20
56.810000
 42
-0.414219
 10
75.060000
 20
56.510000
 42
-0.414219
 10
74.760000
 20
56.210000
 42
-0.414219
  0
LWPOLYLINE
  5
BE
330
12
100
AcDbEntity
  8
0
100
AcDbPolyline
 43
0
 90
4
 70
1
 10
77.005000
 20
131.190000
 42
-0.414216
 10
77.780000
 20
131.965000
 42
-0.414216
 10
78.555000
 20
131.190000
 42
-0.414216
 10
77.780000
 20
130.415000
 42
-0.414216
  0
LWPOLYLINE
  5
BF
330
12
100
AcDbEntity
  8
0
100
AcDbPolyline
 43
0
 90
4
 70
1
 10
77.915000
 20
123.850000
 42
-0.414215
 10
79.840000
 20
125.775000
 42
-0.414215
 10
81.765000
 20
123.850000
 42
-0.414215
 10
79.840000
 20
121.925000
 42
-0.414215
  0
LWPOLYLINE
  5
C0
330
12
100
AcDbEntity
  8
0
100
AcDbPolyline
 43
0
 90
4
 70
1
 10
78.200000
 20
150.520000
 42
-0.414214
 10
80.400000
 20
152.720000
 42
-0.414214
 10
82.600000
 20
150.520000
 42
-0.414214
 10
80.400000
 20
148.320000
 42
-0.414214
  0
LWPOLYLINE
  5
C1
330
12
100
AcDbEntity
  8
0
100
AcDbPolyline
 43
0
 90
4
 70
1
 10
78.330000
 20
17.520000
 42
-0.414214
 10
80.530000
 20
19.720000
 42
-0.414214
 10
82.730000
 20
17.520000
 42
-0.414214
 10
80.530000
 20
15.320000
 42
-0.414214
  0
LWPOLYLINE
  5
C2
330
12
100
AcDbEntity
  8
0
100
AcDbPolyline
 43
0
 90
4
 70
1
 10
81.125000
 20
131.190000
 42
-0.414216
 10
81.900000
 20
131.965000
 42
-0.414216
 10
82.675000
 20
131.190000
 42
-0.414216
 10
81.900000
 20
130.415000
 42
-0.414216
  0
LWPOLYLINE
  5
C3
330
12
100
AcDbEntity
  8
0
100
AcDbPolyline
 43
0
 90
4
 70
1
 10
83.550000
 20
26.000000
 42
-0.414215
 10
85.000000
 20
27.450000
 42
-0.414215
 10
86.450000
 20
26.000000
 42
-0.414215
 10
85.000000
 20
24.550000
 42
-0.414215
  0
LWPOLYLINE
  5
C4
330
12
100
AcDbEntity
  8
0
100
AcDbPolyline
 43
0
 90
4
 70
1
 10
88.950000
 20
29.000000
 42
-0.414217
 10
89.500000
 20
29.550000
 42
-0.414217
 10
90.050000
 20
29.000000
 42
-0.414217
 10
89.500000
 20
28.450000
 42
-0.414217
  0
LWPOLYLINE
  5
C5
330
12
100
AcDbEntity
  8
0
100
AcDbPolyline
 43
0
 90
4
 70
1
 10
88.950000
 20
30.500000
 42
-0.414217
 10
89.500000
 20
31.050000
 42
-0.414217
 10
90.050000
 20
30.500000
 42
-0.414217
 10
89.500000
 20
29.950000
 42
-0.414217
  0
LWPOLYLINE
  5
C6
330
12
100
AcDbEntity
  8
0
100
AcDbPolyline
 43
0
 90
4
 70
1
 10
88.950000
 20
32.000000
 42
-0.414217
 10
89.500000
 20
32.550000
 42
-0.414217
 10
90.050000
 20
32.000000
 42
-0.414217
 10
89.500000
 20
31.450000
 42
-0.414217
  0
LWPOLYLINE
  5
C7
330
12
100
AcDbEntity
  8
0
100
AcDbPolyline
 43
0
 90
4
 70
1
 10
88.950000
 20
136.000000
 42
-0.414217
 10
89.500000
 20
136.550000
 42
-0.414217
 10
90.050000
 20
136.000000
 42
-0.414217
 10
89.500000
 20
135.450000
 42
-0.414217
  0
LWPOLYLINE
  5
C8
330
12
100
AcDbEntity
  8
0
100
AcDbPolyline
 43
0
 90
4
 70
1
 10
88.950000
 20
137.500000
 42
-0.414217
 10
89.500000
 20
138.050000
 42
-0.414217
 10
90.050000
 20
137.500000
 42
-0.414217
 10
89.500000
 20
136.950000
 42
-0.414217
  0
LWPOLYLINE
  5
C9
330
12
100
AcDbEntity
  8
0
100
AcDbPolyline
 43
0
 90
4
 70
1
 10
88.950000
 20
139.000000
 42
-0.414217
 10
89.500000
 20
139.550000
 42
-0.414217
 10
90.050000
 20
139.000000
 42
-0.414217
 10
89.500000
 20
138.450000
 42
-0.414217
  0
LWPOLYLINE
  5
CA
330
12
100
AcDbEntity
  8
0
100
AcDbPolyline
 43
0
 90
4
 70
1
 10
97.950000
 20
29.000000
 42
-0.414217
 10
98.500000
 20
29.550000
 42
-0.414217
 10
99.050000
 20
29.000000
 42
-0.414217
 10
98.500000
 20
28.450000
 42
-0.414217
  0
LWPOLYLINE
  5
CB
330
12
100
AcDbEntity
  8
0
100
AcDbPolyline
 43
0
 90
4
 70
1
 10
97.950000
 20
30.500000
 42
-0.414217
 10
98.500000
 20
31.050000
 42
-0.414217
 10
99.050000
 20
30.500000
 42
-0.414217
 10
98.500000
 20
29.950000
 42
-0.414217
  0
LWPOLYLINE
  5
CC
330
12
100
AcDbEntity
  8
0
100
AcDbPolyline
 43
0
 90
4
 70
1
 10
97.950000
 20
32.000000
 42
-0.414217
 10
98.500000
 20
32.550000
 42
-0.414217
 10
99.050000
 20
32.000000
 42
-0.414217
 10
98.500000
 20
31.450000
 42
-0.414217
  0
LWPOLYLINE
  5
CD
330
12
100
AcDbEntity
  8
0
100
AcDbPolyline
 43
0
 90
4
 70
1
 10
97.950000
 20
82.500000
 42
-0.414217
 10
98.500000
 20
83.050000
 42
-0.414217
 10
99.050000
 20
82.500000
 42
-0.414217
 10
98.500000
 20
81.950000
 42
-0.414217
  0
LWPOLYLINE
  5
CE
330
12
100
AcDbEntity
  8
0
100
AcDbPolyline
 43
0
 90
4
 70
1
 10
97.950000
 20
84.000000
 42
-0.414217
 10
98.500000
 20
84.550000
 42
-0.414217
 10
99.050000
 20
84.000000
 42
-0.414217
 10
98.500000
 20
83.450000
 42
-0.414217
  0
LWPOLYLINE
  5
CF
330
12
100
AcDbEntity
  8
0
100
AcDbPolyline
 43
0
 90
4
 70
1
 10
97.950000
 20
85.500000
 42
-0.414217
 10
98.500000
 20
86.050000
 42
-0.414217
 10
99.050000
 20
85.500000
 42
-0.414217
 10
98.500000
 20
84.950000
 42
-0.414217
  0
LWPOLYLINE
  5
D0
330
12
100
AcDbEntity
  8
0
100
AcDbPolyline
 43
0
 90
4
 70
1
 10
97.950000
 20
136.000000
 42
-0.414217
 10
98.500000
 20
136.550000
 42
-0.414217
 10
99.050000
 20
136.000000
 42
-0.414217
 10
98.500000
 20
135.450000
 42
-0.414217
  0
LWPOLYLINE
  5
D1
330
12
100
AcDbEntity
  8
0
100
AcDbPolyline
 43
0
 90
4
 70
1
 10
97.950000
 20
137.500000
 42
-0.414217
 10
98.500000
 20
138.050000
 42
-0.414217
 10
99.050000
 20
137.500000
 42
-0.414217
 10
98.500000
 20
136.950000
 42
-0.414217
  0
LWPOLYLINE
  5
D2
330
12
100
AcDbEntity
  8
0
100
AcDbPolyline
 43
0
 90
4
 70
1
 10
97.950000
 20
139.000000
 42
-0.414217
 10
98.500000
 20
139.550000
 42
-0.414217
 10
99.050000
 20
139.000000
 42
-0.414217
 10
98.500000
 20
138.450000
 42
-0.414217
  0
LWPOLYLINE
  5
D3
330
12
100
AcDbEntity
  8
0
100
AcDbPolyline
 43
0
 90
4
 70
1
 10
101.550000
 20
142.000000
 42
-0.414215
 10
103.000000
 20
143.450000
 42
-0.414215
 10
104.450000
 20
142.000000
 42
-0.414215
 10
103.000000
 20
140.550000
 42
-0.414215
  0
LWPOLYLINE
  5
D4
330
12
100
AcDbEntity
  8
0
100
AcDbPolyline
 43
0
 90
4
 70
1
 10
105.330000
 20
17.520000
 42
-0.414214
 10
107.530000
 20
19.720000
 42
-0.414214
 10
109.730000
 20
17.520000
 42
-0.414214
 10
107.530000
 20
15.320000
 42
-0.414214
  0
LWPOLYLINE
  5
D5
330
12
100
AcDbEntity
  8
0
100
AcDbPolyline
 43
0
 90
4
 70
1
 10
105.330000
 20
150.520000
 42
-0.414214
 10
107.530000
 20
152.720000
 42
-0.414214
 10
109.730000
 20
150.520000
 42
-0.414214
 10
107.530000
 20
148.320000
 42
-0.414214
  0
LWPOLYLINE
  5
D6
330
12
100
AcDbEntity
  8
0
100
AcDbPolyline
 43
0
 90
4
 70
1
 10
107.310000
 20
34.420000
 42
-0.414219
 10
107.610000
 20
34.720000
 42
-0.414219
 10
107.910000
 20
34.420000
 42
-0.414219
 10
107.610000
 20
34.120000
 42
-0.414219
  0
LWPOLYLINE
  5
D7
330
12
100
AcDbEntity
  8
0
100
AcDbPolyline
 43
0
 90
4
 70
1
 10
107.310000
 20
42.290000
 42
-0.414219
 10
107.610000
 20
42.590000
 42
-0.414219
 10
107.910000
 20
42.290000
 42
-0.414219
 10
107.610000
 20
41.990000
 42
-0.414219
  0
LWPOLYLINE
  5
D8
330
12
100
AcDbEntity
  8
0
100
AcDbPolyline
 43
0
 90
4
 70
1
 10
107.310000
 20
50.540000
 42
-0.414219
 10
107.610000
 20
50.840000
 42
-0.414219
 10
107.910000
 20
50.540000
 42
-0.414219
 10
107.610000
 20
50.240000
 42
-0.414219
  0
LWPOLYLINE
  5
D9
330
12
100
AcDbEntity
  8
0
100
AcDbPolyline
 43
0
 90
4
 70
1
 10
111.760000
 20
75.310000
 42
-0.414219
 10
112.060000
 20
75.610000
 42
-0.414219
 10
112.360000
 20
75.310000
 42
-0.414219
 10
112.060000
 20
75.010000
 42
-0.414219
  0
LWPOLYLINE
  5
DA
330
12
100
AcDbEntity
  8
0
100
AcDbPolyline
 43
0
 90
4
 70
1
 10
114.680000
 20
62.610000
 42
-0.414219
 10
114.980000
 20
62.910000
 42
-0.414219
 10
115.280000
 20
62.610000
 42
-0.414219
 10
114.980000
 20
62.310000
 42
-0.414219
  0
LWPOLYLINE
  5
DB
330
12
100
AcDbEntity
  8
0
100
AcDbPolyline
 43
0
 90
4
 70
1
 10
115.560000
 20
39.750000
 42
-0.414219
 10
115.860000
 20
40.050000
 42
-0.414219
 10
116.160000
 20
39.750000
 42
-0.414219
 10
115.860000
 20
39.450000
 42
-0.414219
  0
LWPOLYLINE
  5
DC
330
12
100
AcDbEntity
  8
0
100
AcDbPolyline
 43
0
 90
4
 70
1
 10
115.560000
 20
46.100000
 42
-0.414219
 10
115.860000
 20
46.400000
 42
-0.414219
 10
116.160000
 20
46.100000
 42
-0.414219
 10
115.860000
 20
45.800000
 42
-0.414219
  0
LWPOLYLINE
  5
DD
330
12
100
AcDbEntity
  8
0
100
AcDbPolyline
 43
0
 90
4
 70
1
 10
115.560000
 20
65.780000
 42
-0.414219
 10
115.860000
 20
66.080000
 42
-0.414219
 10
116.160000
 20
65.780000
 42
-0.414219
 10
115.860000
 20
65.480000
 42
-0.414219
  0
LWPOLYLINE
  5
DE
330
12
100
AcDbEntity
  8
0
100
AcDbPolyline
 43
0
 90
4
 70
1
 10
115.560000
 20
84.960000
 42
-0.414219
 10
115.860000
 20
85.260000
 42
-0.414219
 10
116.160000
 20
84.960000
 42
-0.414219
 10
115.860000
 20
84.660000
 42
-0.414219
  0
LWPOLYLINE
  5
DF
330
12
100
AcDbEntity
  8
0
100
AcDbPolyline
 43
0
 90
4
 70
1
 10
115.800000
 20
146.430000
 42
-0.414216
 10
116.500000
 20
147.130000
 42
-0.414216
 10
117.200000
 20
146.430000
 42
-0.414216
 10
116.500000
 20
145.730000
 42
-0.414216
  0
LWPOLYLINE
  5
E0
330
12
100
AcDbEntity
  8
0
100
AcDbPolyline
 43
0
 90
4
 70
1
 10
115.800000
 20
151.510000
 42
-0.414216
 10
116.500000
 20
152.210000
 42
-0.414216
 10
117.200000
 20
151.510000
 42
-0.414216
 10
116.500000
 20
150.810000
 42
-0.414216
  0
LWPOLYLINE
  5
E1
330
12
100
AcDbEntity
  8
0
100
AcDbPolyline
 43
0
 90
4
 70
1
 10
116.580000
 20
32.890000
 42
-0.414217
 10
117.130000
 20
33.440000
 42
-0.414217
 10
117.680000
 20
32.890000
 42
-0.414217
 10
117.130000
 20
32.340000
 42
-0.414217
  0
LWPOLYLINE
  5
E2
330
12
100
AcDbEntity
  8
0
100
AcDbPolyline
 43
0
 90
4
 70
1
 10
118.610000
 20
48.510000
 42
-0.414219
 10
118.910000
 20
48.810000
 42
-0.414219
 10
119.210000
 20
48.510000
 42
-0.414219
 10
118.910000
 20
48.210000
 42
-0.414219
  0
LWPOLYLINE
  5
E3
330
12
100
AcDbEntity
  8
0
100
AcDbPolyline
 43
0
 90
4
 70
1
 10
120.490000
 20
23.240000
 42
-0.414218
 10
120.940000
 20
23.690000
 42
-0.414218
 10
121.390000
 20
23.240000
 42
-0.414218
 10
120.940000
 20
22.790000
 42
-0.414218
  0
LWPOLYLINE
  5
E4
330
12
100
AcDbEntity
  8
0
100
AcDbPolyline
 43
0
 90
4
 70
1
 10
121.150000
 20
48.510000
 42
-0.414219
 10
121.450000
 20
48.810000
 42
-0.414219
 10
121.750000
 20
48.510000
 42
-0.414219
 10
121.450000
 20
48.210000
 42
-0.414219
  0
LWPOLYLINE
  5
E5
330
12
100
AcDbEntity
  8
0
100
AcDbPolyline
 43
0
 90
4
 70
1
 10
122.680000
 20
56.390000
 42
-0.414219
 10
122.980000
 20
56.690000
 42
-0.414219
 10
123.280000
 20
56.390000
 42
-0.414219
 10
122.980000
 20
56.090000
 42
-0.414219
  0
LWPOLYLINE
  5
E6
330
12
100
AcDbEntity
  8
0
100
AcDbPolyline
 43
0
 90
4
 70
1
 10
123.040000
 20
23.240000
 42
-0.414218
 10
123.490000
 20
23.690000
 42
-0.414218
 10
123.940000
 20
23.240000
 42
-0.414218
 10
123.490000
 20
22.790000
 42
-0.414218
  0
LWPOLYLINE
  5
E7
330
12
100
AcDbEntity
  8
0
100
AcDbPolyline
 43
0
 90
4
 70
1
 10
123.820000
 20
82.290000
 42
-0.414219
 10
124.120000
 20
82.590000
 42
-0.414219
 10
124.420000
 20
82.290000
 42
-0.414219
 10
124.120000
 20
81.990000
 42
-0.414219
  0
LWPOLYLINE
  5
E8
330
12
100
AcDbEntity
  8
0
100
AcDbPolyline
 43
0
 90
4
 70
1
 10
123.820000
 20
87.500000
 42
-0.414219
 10
124.120000
 20
87.800000
 42
-0.414219
 10
124.420000
 20
87.500000
 42
-0.414219
 10
124.120000
 20
87.200000
 42
-0.414219
  0
LWPOLYLINE
  5
E9
330
12
100
AcDbEntity
  8
0
100
AcDbPolyline
 43
0
 90
4
 70
1
 10
124.250000
 20
61.970000
 42
-0.414219
 10
124.550000
 20
62.270000
 42
-0.414219
 10
124.850000
 20
61.970000
 42
-0.414219
 10
124.550000
 20
61.670000
 42
-0.414219
  0
LWPOLYLINE
  5
EA
330
12
100
AcDbEntity
  8
0
100
AcDbPolyline
 43
0
 90
4
 70
1
 10
125.090000
 20
18.160000
 42
-0.414219
 10
125.390000
 20
18.460000
 42
-0.414219
 10
125.690000
 20
18.160000
 42
-0.414219
 10
125.390000
 20
17.860000
 42
-0.414219
  0
LWPOLYLINE
  5
EB
330
12
100
AcDbEntity
  8
0
100
AcDbPolyline
 43
0
 90
4
 70
1
 10
125.340000
 20
78.050000
 42
-0.414219
 10
125.640000
 20
78.350000
 42
-0.414219
 10
125.940000
 20
78.050000
 42
-0.414219
 10
125.640000
 20
77.750000
 42
-0.414219
  0
LWPOLYLINE
  5
EC
330
12
100
AcDbEntity
  8
0
100
AcDbPolyline
 43
0
 90
4
 70
1
 10
125.960000
 20
146.430000
 42
-0.414216
 10
126.660000
 20
147.130000
 42
-0.414216
 10
127.360000
 20
146.430000
 42
-0.414216
 10
126.660000
 20
145.730000
 42
-0.414216
  0
LWPOLYLINE
  5
ED
330
12
100
AcDbEntity
  8
0
100
AcDbPolyline
 43
0
 90
4
 70
1
 10
125.960000
 20
151.510000
 42
-0.414216
 10
126.660000
 20
152.210000
 42
-0.414216
 10
127.360000
 20
151.510000
 42
-0.414216
 10
126.660000
 20
150.810000
 42
-0.414216
  0
LWPOLYLINE
  5
EE
330
12
100
AcDbEntity
  8
0
100
AcDbPolyline
 43
0
 90
4
 70
1
 10
126.740000
 20
32.890000
 42
-0.414217
 10
127.290000
 20
33.440000
 42
-0.414217
 10
127.840000
 20
32.890000
 42
-0.414217
 10
127.290000
 20
32.340000
 42
-0.414217
  0
LWPOLYLINE
  5
EF
330
12
100
AcDbEntity
  8
0
100
AcDbPolyline
 43
0
 90
4
 70
1
 10
126.990000
 20
53.080000
 42
-0.414219
 10
127.290000
 20
53.380000
 42
-0.414219
 10
127.590000
 20
53.080000
 42
-0.414219
 10
127.290000
 20
52.780000
 42
-0.414219
  0
LWPOLYLINE
  5
F0
330
12
100
AcDbEntity
  8
0
100
AcDbPolyline
 43
0
 90
4
 70
1
 10
127.630000
 20
78.490000
 42
-0.414219
 10
127.930000
 20
78.790000
 42
-0.414219
 10
128.230000
 20
78.490000
 42
-0.414219
 10
127.930000
 20
78.190000
 42
-0.414219
  0
LWPOLYLINE
  5
F1
330
12
100
AcDbEntity
  8
0
100
AcDbPolyline
 43
0
 90
4
 70
1
 10
128.900000
 20
21.770000
 42
-0.414219
 10
129.200000
 20
22.070000
 42
-0.414219
 10
129.500000
 20
21.770000
 42
-0.414219
 10
129.200000
 20
21.470000
 42
-0.414219
  0
LWPOLYLINE
  5
F2
330
12
100
AcDbEntity
  8
0
100
AcDbPolyline
 43
0
 90
4
 70
1
 10
129.100000
 20
45.590000
 42
-0.414219
 10
129.400000
 20
45.890000
 42
-0.414219
 10
129.700000
 20
45.590000
 42
-0.414219
 10
129.400000
 20
45.290000
 42
-0.414219
  0
LWPOLYLINE
  5
F3
330
12
100
AcDbEntity
  8
0
100
AcDbPolyline
 43
0
 90
4
 70
1
 10
129.530000
 20
41.020000
 42
-0.414219
 10
129.830000
 20
41.320000
 42
-0.414219
 10
130.130000
 20
41.020000
 42
-0.414219
 10
129.830000
 20
40.720000
 42
-0.414219
  0
LWPOLYLINE
  5
F4
330
12
100
AcDbEntity
  8
0
100
AcDbPolyline
 43
0
 90
4
 70
1
 10
129.530000
 20
53.080000
 42
-0.414219
 10
129.830000
 20
53.380000
 42
-0.414219
 10
130.130000
 20
53.080000
 42
-0.414219
 10
129.830000
 20
52.780000
 42
-0.414219
  0
LWPOLYLINE
  5
F5
330
12
100
AcDbEntity
  8
0
100
AcDbPolyline
 43
0
 90
4
 70
1
 10
129.530000
 20
59.440000
 42
-0.414219
 10
129.830000
 20
59.740000
 42
-0.414219
 10
130.130000
 20
59.440000
 42
-0.414219
 10
129.830000
 20
59.140000
 42
-0.414219
  0
LWPOLYLINE
  5
F6
330
12
100
AcDbEntity
  8
0
100
AcDbPolyline
 43
0
 90
4
 70
1
 10
129.740000
 20
34.670000
 42
-0.414219
 10
130.040000
 20
34.970000
 42
-0.414219
 10
130.340000
 20
34.670000
 42
-0.414219
 10
130.040000
 20
34.370000
 42
-0.414219
  0
LWPOLYLINE
  5
F7
330
12
100
AcDbEntity
  8
0
100
AcDbPolyline
 43
0
 90
4
 70
1
 10
130.170000
 20
78.490000
 42
-0.414219
 10
130.470000
 20
78.790000
 42
-0.414219
 10
130.770000
 20
78.490000
 42
-0.414219
 10
130.470000
 20
78.190000
 42
-0.414219
  0
LWPOLYLINE
  5
F8
330
12
100
AcDbEntity
  8
0
100
AcDbPolyline
 43
0
 90
4
 70
1
 10
131.440000
 20
72.770000
 42
-0.414219
 10
131.740000
 20
73.070000
 42
-0.414219
 10
132.040000
 20
72.770000
 42
-0.414219
 10
131.740000
 20
72.470000
 42
-0.414219
  0
LWPOLYLINE
  5
F9
330
12
100
AcDbEntity
  8
0
100
AcDbPolyline
 43
0
 90
4
 70
1
 10
132.080000
 20
53.080000
 42
-0.414219
 10
132.380000
 20
53.380000
 42
-0.414219
 10
132.680000
 20
53.080000
 42
-0.414219
 10
132.380000
 20
52.780000
 42
-0.414219
  0
LWPOLYLINE
  5
FA
330
12
100
AcDbEntity
  8
0
100
AcDbPolyline
 43
0
 90
4
 70
1
 10
132.080000
 20
57.280000
 42
-0.414219
 10
132.380000
 20
57.580000
 42
-0.414219
 10
132.680000
 20
57.280000
 42
-0.414219
 10
132.380000
 20
56.980000
 42
-0.414219
  0
LWPOLYLINE
  5
FB
330
12
100
AcDbEntity
  8
0
100
AcDbPolyline
 43
0
 90
4
 70
1
 10
132.080000
 20
78.490000
 42
-0.414219
 10
132.380000
 20
78.790000
 42
-0.414219
 10
132.680000
 20
78.490000
 42
-0.414219
 10
132.380000
 20
78.190000
 42
-0.414219
  0
LWPOLYLINE
  5
FC
330
12
100
AcDbEntity
  8
0
100
AcDbPolyline
 43
0
 90
4
 70
1
 10
132.710000
 20
18.160000
 42
-0.414219
 10
133.010000
 20
18.460000
 42
-0.414219
 10
133.310000
 20
18.160000
 42
-0.414219
 10
133.010000
 20
17.860000
 42
-0.414219
  0
LWPOLYLINE
  5
FD
330
12
100
AcDbEntity
  8
0
100
AcDbPolyline
 43
0
 90
4
 70
1
 10
132.840000
 20
22.480000
 42
-0.414219
 10
133.140000
 20
22.780000
 42
-0.414219
 10
133.440000
 20
22.480000
 42
-0.414219
 10
133.140000
 20
22.180000
 42
-0.414219
  0
LWPOLYLINE
  5
FE
330
12
100
AcDbEntity
  8
0
100
AcDbPolyline
 43
0
 90
4
 70
1
 10
133.630000
 20
114.680000
 42
-0.414216
 10
134.280000
 20
115.330000
 42
-0.414216
 10
134.930000
 20
114.680000
 42
-0.414216
 10
134.280000
 20
114.030000
 42
-0.414216
  0
LWPOLYLINE
  5
FF
330
12
100
AcDbEntity
  8
0
100
AcDbPolyline
 43
0
 90
4
 70
1
 10
133.630000
 20
126.110000
 42
-0.414216
 10
134.280000
 20
126.760000
 42
-0.414216
 10
134.930000
 20
126.110000
 42
-0.414216
 10
134.280000
 20
125.460000
 42
-0.414216
  0
LWPOLYLINE
  5
100
330
12
100
AcDbEntity
  8
0
100
AcDbPolyline
 43
0
 90
4
 70
1
 10
133.630000
 20
137.540000
 42
-0.414216
 10
134.280000
 20
138.190000
 42
-0.414216
 10
134.930000
 20
137.540000
 42
-0.414216
 10
134.280000
 20
136.890000
 42
-0.414216
  0
LWPOLYLINE
  5
101
330
12
100
AcDbEntity
  8
0
100
AcDbPolyline
 43
0
 90
4
 70
1
 10
133.630000
 20
148.970000
 42
-0.414216
 10
134.280000
 20
149.620000
 42
-0.414216
 10
134.930000
 20
148.970000
 42
-0.414216
 10
134.280000
 20
148.320000
 42
-0.414216
  0
LWPOLYLINE
  5
102
330
12
100
AcDbEntity
  8
0
100
AcDbPolyline
 43
0
 90
4
 70
1
 10
134.620000
 20
53.080000
 42
-0.414219
 10
134.920000
 20
53.380000
 42
-0.414219
 10
135.220000
 20
53.080000
 42
-0.414219
 10
134.920000
 20
52.780000
 42
-0.414219
  0
LWPOLYLINE
  5
103
330
12
100
AcDbEntity
  8
0
100
AcDbPolyline
 43
0
 90
4
 70
1
 10
135.120000
 20
89.280000
 42
-0.414219
 10
135.420000
 20
89.580000
 42
-0.414219
 10
135.720000
 20
89.280000
 42
-0.414219
 10
135.420000
 20
88.980000
 42
-0.414219
  0
LWPOLYLINE
  5
104
330
12
100
AcDbEntity
  8
0
100
AcDbPolyline
 43
0
 90
4
 70
1
 10
135.250000
 20
42.670000
 42
-0.414219
 10
135.550000
 20
42.970000
 42
-0.414219
 10
135.850000
 20
42.670000
 42
-0.414219
 10
135.550000
 20
42.370000
 42
-0.414219
  0
LWPOLYLINE
  5
105
330
12
100
AcDbEntity
  8
0
100
AcDbPolyline
 43
0
 90
4
 70
1
 10
135.250000
 20
44.190000
 42
-0.414219
 10
135.550000
 20
44.490000
 42
-0.414219
 10
135.850000
 20
44.190000
 42
-0.414219
 10
135.550000
 20
43.890000
 42
-0.414219
  0
LWPOLYLINE
  5
106
330
12
100
AcDbEntity
  8
0
100
AcDbPolyline
 43
0
 90
4
 70
1
 10
136.800000
 20
73.990000
 42
-0.414214
 10
139.000000
 20
76.190000
 42
-0.414214
 10
141.200000
 20
73.990000
 42
-0.414214
 10
139.000000
 20
71.790000
 42
-0.414214
  0
LWPOLYLINE
  5
107
330
12
100
AcDbEntity
  8
0
100
AcDbPolyline
 43
0
 90
4
 70
1
 10
137.160000
 20
53.080000
 42
-0.414219
 10
137.460000
 20
53.380000
 42
-0.414219
 10
137.760000
 20
53.080000
 42
-0.414219
 10
137.460000
 20
52.780000
 42
-0.414219
  0
LWPOLYLINE
  5
108
330
12
100
AcDbEntity
  8
0
100
AcDbPolyline
 43
0
 90
4
 70
1
 10
137.160000
 20
58.170000
 42
-0.414219
 10
137.460000
 20
58.470000
 42
-0.414219
 10
137.760000
 20
58.170000
 42
-0.414219
 10
137.460000
 20
57.870000
 42
-0.414219
  0
LWPOLYLINE
  5
109
330
12
100
AcDbEntity
  8
0
100
AcDbPolyline
 43
0
 90
4
 70
1
 10
137.160000
 20
60.450000
 42
-0.414219
 10
137.460000
 20
60.750000
 42
-0.414219
 10
137.760000
 20
60.450000
 42
-0.414219
 10
137.460000
 20
60.150000
 42
-0.414219
  0
LWPOLYLINE
  5
10A
330
12
100
AcDbEntity
  8
0
100
AcDbPolyline
 43
0
 90
4
 70
1
 10
137.160000
 20
62.230000
 42
-0.414219
 10
137.460000
 20
62.530000
 42
-0.414219
 10
137.760000
 20
62.230000
 42
-0.414219
 10
137.460000
 20
61.930000
 42
-0.414219
  0
LWPOLYLINE
  5
10B
330
12
100
AcDbEntity
  8
0
100
AcDbPolyline
 43
0
 90
4
 70
1
 10
137.790000
 20
44.190000
 42
-0.414219
 10
138.090000
 20
44.490000
 42
-0.414219
 10
138.390000
 20
44.190000
 42
-0.414219
 10
138.090000
 20
43.890000
 42
-0.414219
  0
LWPOLYLINE
  5
10C
330
12
100
AcDbEntity
  8
0
100
AcDbPolyline
 43
0
 90
4
 70
1
 10
139.060000
 20
52.880000
 42
-0.414219
 10
139.360000
 20
53.180000
 42
-0.414219
 10
139.660000
 20
52.880000
 42
-0.414219
 10
139.360000
 20
52.580000
 42
-0.414219
  0
LWPOLYLINE
  5
10D
330
12
100
AcDbEntity
  8
0
100
AcDbPolyline
 43
0
 90
4
 70
1
 10
140.330000
 20
18.160000
 42
-0.414219
 10
140.630000
 20
18.460000
 42
-0.414219
 10
140.930000
 20
18.160000
 42
-0.414219
 10
140.630000
 20
17.860000
 42
-0.414219
  0
LWPOLYLINE
  5
10E
330
12
100
AcDbEntity
  8
0
100
AcDbPolyline
 43
0
 90
4
 70
1
 10
141.600000
 20
36.580000
 42
-0.414219
 10
141.900000
 20
36.880000
 42
-0.414219
 10
142.200000
 20
36.580000
 42
-0.414219
 10
141.900000
 20
36.280000
 42
-0.414219
  0
LWPOLYLINE
  5
10F
330
12
100
AcDbEntity
  8
0
100
AcDbPolyline
 43
0
 90
4
 70
1
 10
141.600000
 20
41.020000
 42
-0.414219
 10
141.900000
 20
41.320000
 42
-0.414219
 10
142.200000
 20
41.020000
 42
-0.414219
 10
141.900000
 20
40.720000
 42
-0.414219
  0
LWPOLYLINE
  5
110
330
12
100
AcDbEntity
  8
0
100
AcDbPolyline
 43
0
 90
4
 70
1
 10
141.600000
 20
45.900000
 42
-0.414219
 10
141.900000
 20
46.200000
 42
-0.414219
 10
142.200000
 20
45.900000
 42
-0.414219
 10
141.900000
 20
45.600000
 42
-0.414219
  0
LWPOLYLINE
  5
111
330
12
100
AcDbEntity
  8
0
100
AcDbPolyline
 43
0
 90
4
 70
1
 10
141.600000
 20
96.900000
 42
-0.414219
 10
141.900000
 20
97.200000
 42
-0.414219
 10
142.200000
 20
96.900000
 42
-0.414219
 10
141.900000
 20
96.600000
 42
-0.414219
  0
LWPOLYLINE
  5
112
330
12
100
AcDbEntity
  8
0
100
AcDbPolyline
 43
0
 90
4
 70
1
 10
141.600000
 20
98.810000
 42
-0.414219
 10
141.900000
 20
99.110000
 42
-0.414219
 10
142.200000
 20
98.810000
 42
-0.414219
 10
141.900000
 20
98.510000
 42
-0.414219
  0
LWPOLYLINE
  5
113
330
12
100
AcDbEntity
  8
0
100
AcDbPolyline
 43
0
 90
4
 70
1
 10
142.230000
 20
48.010000
 42
-0.414219
 10
142.530000
 20
48.310000
 42
-0.414219
 10
142.830000
 20
48.010000
 42
-0.414219
 10
142.530000
 20
47.710000
 42
-0.414219
  0
LWPOLYLINE
  5
114
330
12
100
AcDbEntity
  8
0
100
AcDbPolyline
 43
0
 90
4
 70
1
 10
143.510000
 20
17.520000
 42
-0.414219
 10
143.810000
 20
17.820000
 42
-0.414219
 10
144.110000
 20
17.520000
 42
-0.414219
 10
143.810000
 20
17.220000
 42
-0.414219
  0
LWPOLYLINE
  5
115
330
12
100
AcDbEntity
  8
0
100
AcDbPolyline
 43
0
 90
4
 70
1
 10
143.510000
 20
31.930000
 42
-0.414219
 10
143.810000
 20
32.230000
 42
-0.414219
 10
144.110000
 20
31.930000
 42
-0.414219
 10
143.810000
 20
31.630000
 42
-0.414219
  0
LWPOLYLINE
  5
116
330
12
100
AcDbEntity
  8
0
100
AcDbPolyline
 43
0
 90
4
 70
1
 10
143.510000
 20
96.900000
 42
-0.414219
 10
143.810000
 20
97.200000
 42
-0.414219
 10
144.110000
 20
96.900000
 42
-0.414219
 10
143.810000
 20
96.600000
 42
-0.414219
  0
LWPOLYLINE
  5
117
330
12
100
AcDbEntity
  8
0
100
AcDbPolyline
 43
0
 90
4
 70
1
 10
143.510000
 20
98.810000
 42
-0.414219
 10
143.810000
 20
99.110000
 42
-0.414219
 10
144.110000
 20
98.810000
 42
-0.414219
 10
143.810000
 20
98.510000
 42
-0.414219
  0
LWPOLYLINE
  5
118
330
12
100
AcDbEntity
  8
0
100
AcDbPolyline
 43
0
 90
4
 70
1
 10
145.410000
 20
23.880000
 42
-0.414219
 10
145.710000
 20
24.180000
 42
-0.414219
 10
146.010000
 20
23.880000
 42
-0.414219
 10
145.710000
 20
23.580000
 42
-0.414219
  0
LWPOLYLINE
  5
119
330
12
100
AcDbEntity
  8
0
100
AcDbPolyline
 43
0
 90
4
 70
1
 10
145.410000
 20
27.050000
 42
-0.414219
 10
145.710000
 20
27.350000
 42
-0.414219
 10
146.010000
 20
27.050000
 42
-0.414219
 10
145.710000
 20
26.750000
 42
-0.414219
  0
LWPOLYLINE
  5
11A
330
12
100
AcDbEntity
  8
0
100
AcDbPolyline
 43
0
 90
4
 70
1
 10
145.410000
 20
58.170000
 42
-0.414219
 10
145.710000
 20
58.470000
 42
-0.414219
 10
146.010000
 20
58.170000
 42
-0.414219
 10
145.710000
 20
57.870000
 42
-0.414219
  0
LWPOLYLINE
  5
11B
330
12
100
AcDbEntity
  8
0
100
AcDbPolyline
 43
0
 90
4
 70
1
 10
145.410000
 20
96.900000
 42
-0.414219
 10
145.710000
 20
97.200000
 42
-0.414219
 10
146.010000
 20
96.900000
 42
-0.414219
 10
145.710000
 20
96.600000
 42
-0.414219
  0
LWPOLYLINE
  5
11C
330
12
100
AcDbEntity
  8
0
100
AcDbPolyline
 43
0
 90
4
 70
1
 10
145.410000
 20
98.810000
 42
-0.414219
 10
145.710000
 20
99.110000
 42
-0.414219
 10
146.010000
 20
98.810000
 42
-0.414219
 10
145.710000
 20
98.510000
 42
-0.414219
  0
LWPOLYLINE
  5
11D
330
12
100
AcDbEntity
  8
0
100
AcDbPolyline
 43
0
 90
4
 70
1
 10
146.050000
 20
64.510000
 42
-0.414219
 10
146.350000
 20
64.810000
 42
-0.414219
 10
146.650000
 20
64.510000
 42
-0.414219
 10
146.350000
 20
64.210000
 42
-0.414219
  0
LWPOLYLINE
  5
11E
330
12
100
AcDbEntity
  8
0
100
AcDbPolyline
 43
0
 90
4
 70
1
 10
147.320000
 20
32.760000
 42
-0.414219
 10
147.620000
 20
33.060000
 42
-0.414219
 10
147.920000
 20
32.760000
 42
-0.414219
 10
147.620000
 20
32.460000
 42
-0.414219
  0
LWPOLYLINE
  5
11F
330
12
100
AcDbEntity
  8
0
100
AcDbPolyline
 43
0
 90
4
 70
1
 10
147.320000
 20
35.310000
 42
-0.414219
 10
147.620000
 20
35.610000
 42
-0.414219
 10
147.920000
 20
35.310000
 42
-0.414219
 10
147.620000
 20
35.010000
 42
-0.414219
  0
LWPOLYLINE
  5
120
330
12
100
AcDbEntity
  8
0
100
AcDbPolyline
 43
0
 90
4
 70
1
 10
147.320000
 20
37.840000
 42
-0.414219
 10
147.620000
 20
38.140000
 42
-0.414219
 10
147.920000
 20
37.840000
 42
-0.414219
 10
147.620000
 20
37.540000
 42
-0.414219
  0
LWPOLYLINE
  5
121
330
12
100
AcDbEntity
  8
0
100
AcDbPolyline
 43
0
 90
4
 70
1
 10
147.320000
 20
42.920000
 42
-0.414219
 10
147.620000
 20
43.220000
 42
-0.414219
 10
147.920000
 20
42.920000
 42
-0.414219
 10
147.620000
 20
42.620000
 42
-0.414219
  0
LWPOLYLINE
  5
122
330
12
100
AcDbEntity
  8
0
100
AcDbPolyline
 43
0
 90
4
 70
1
 10
147.320000
 20
45.470000
 42
-0.414219
 10
147.620000
 20
45.770000
 42
-0.414219
 10
147.920000
 20
45.470000
 42
-0.414219
 10
147.620000
 20
45.170000
 42
-0.414219
  0
LWPOLYLINE
  5
123
330
12
100
AcDbEntity
  8
0
100
AcDbPolyline
 43
0
 90
4
 70
1
 10
147.320000
 20
96.900000
 42
-0.414219
 10
147.620000
 20
97.200000
 42
-0.414219
 10
147.920000
 20
96.900000
 42
-0.414219
 10
147.620000
 20
96.600000
 42
-0.414219
  0
LWPOLYLINE
  5
124
330
12
100
AcDbEntity
  8
0
100
AcDbPolyline
 43
0
 90
4
 70
1
 10
147.320000
 20
98.810000
 42
-0.414219
 10
147.620000
 20
99.110000
 42
-0.414219
 10
147.920000
 20
98.810000
 42
-0.414219
 10
147.620000
 20
98.510000
 42
-0.414219
  0
LWPOLYLINE
  5
125
330
12
100
AcDbEntity
  8
0
100
AcDbPolyline
 43
0
 90
4
 70
1
 10
147.950000
 20
48.010000
 42
-0.414219
 10
148.250000
 20
48.310000
 42
-0.414219
 10
148.550000
 20
48.010000
 42
-0.414219
 10
148.250000
 20
47.710000
 42
-0.414219
  0
LWPOLYLINE
  5
126
330
12
100
AcDbEntity
  8
0
100
AcDbPolyline
 43
0
 90
4
 70
1
 10
148.590000
 20
19.430000
 42
-0.414219
 10
148.890000
 20
19.730000
 42
-0.414219
 10
149.190000
 20
19.430000
 42
-0.414219
 10
148.890000
 20
19.130000
 42
-0.414219
  0
LWPOLYLINE
  5
127
330
12
100
AcDbEntity
  8
0
100
AcDbPolyline
 43
0
 90
4
 70
1
 10
149.220000
 20
96.900000
 42
-0.414219
 10
149.520000
 20
97.200000
 42
-0.414219
 10
149.820000
 20
96.900000
 42
-0.414219
 10
149.520000
 20
96.600000
 42
-0.414219
  0
LWPOLYLINE
  5
128
330
12
100
AcDbEntity
  8
0
100
AcDbPolyline
 43
0
 90
4
 70
1
 10
149.220000
 20
98.810000
 42
-0.414219
 10
149.520000
 20
99.110000
 42
-0.414219
 10
149.820000
 20
98.810000
 42
-0.414219
 10
149.520000
 20
98.510000
 42
-0.414219
  0
LWPOLYLINE
  5
129
330
12
100
AcDbEntity
  8
0
100
AcDbPolyline
 43
0
 90
4
 70
1
 10
149.860000
 20
23.880000
 42
-0.414219
 10
150.160000
 20
24.180000
 42
-0.414219
 10
150.460000
 20
23.880000
 42
-0.414219
 10
150.160000
 20
23.580000
 42
-0.414219
  0
LWPOLYLINE
  5
12A
330
12
100
AcDbEntity
  8
0
100
AcDbPolyline
 43
0
 90
4
 70
1
 10
150.490000
 20
17.520000
 42
-0.414219
 10
150.790000
 20
17.820000
 42
-0.414219
 10
151.090000
 20
17.520000
 42
-0.414219
 10
150.790000
 20
17.220000
 42
-0.414219
  0
LWPOLYLINE
  5
12B
330
12
100
AcDbEntity
  8
0
100
AcDbPolyline
 43
0
 90
4
 70
1
 10
151.120000
 20
66.420000
 42
-0.414219
 10
151.420000
 20
66.720000
 42
-0.414219
 10
151.720000
 20
66.420000
 42
-0.414219
 10
151.420000
 20
66.120000
 42
-0.414219
  0
LWPOLYLINE
  5
12C
330
12
100
AcDbEntity
  8
0
100
AcDbPolyline
 43
0
 90
4
 70
1
 10
151.330000
 20
51.310000
 42
-0.414219
 10
151.630000
 20
51.610000
 42
-0.414219
 10
151.930000
 20
51.310000
 42
-0.414219
 10
151.630000
 20
51.010000
 42
-0.414219
  0
LWPOLYLINE
  5
12D
330
12
100
AcDbEntity
  8
0
100
AcDbPolyline
 43
0
 90
4
 70
1
 10
151.760000
 20
53.080000
 42
-0.414219
 10
152.060000
 20
53.380000
 42
-0.414219
 10
152.360000
 20
53.080000
 42
-0.414219
 10
152.060000
 20
52.780000
 42
-0.414219
  0
LWPOLYLINE
  5
12E
330
12
100
AcDbEntity
  8
0
100
AcDbPolyline
 43
0
 90
4
 70
1
 10
151.760000
 20
56.260000
 42
-0.414219
 10
152.060000
 20
56.560000
 42
-0.414219
 10
152.360000
 20
56.260000
 42
-0.414219
 10
152.060000
 20
55.960000
 42
-0.414219
  0
LWPOLYLINE
  5
12F
330
12
100
AcDbEntity
  8
0
100
AcDbPolyline
 43
0
 90
4
 70
1
 10
153.030000
 20
17.520000
 42
-0.414219
 10
153.330000
 20
17.820000
 42
-0.414219
 10
153.630000
 20
17.520000
 42
-0.414219
 10
153.330000
 20
17.220000
 42
-0.414219
  0
LWPOLYLINE
  5
130
330
12
100
AcDbEntity
  8
0
100
AcDbPolyline
 43
0
 90
4
 70
1
 10
153.030000
 20
34.030000
 42
-0.414219
 10
153.330000
 20
34.330000
 42
-0.414219
 10
153.630000
 20
34.030000
 42
-0.414219
 10
153.330000
 20
33.730000
 42
-0.414219
  0
LWPOLYLINE
  5
131
330
12
100
AcDbEntity
  8
0
100
AcDbPolyline
 43
0
 90
4
 70
1
 10
153.030000
 20
36.580000
 42
-0.414219
 10
153.330000
 20
36.880000
 42
-0.414219
 10
153.630000
 20
36.580000
 42
-0.414219
 10
153.330000
 20
36.280000
 42
-0.414219
  0
LWPOLYLINE
  5
132
330
12
100
AcDbEntity
  8
0
100
AcDbPolyline
 43
0
 90
4
 70
1
 10
154.500000
 20
46.100000
 42
-0.414219
 10
154.800000
 20
46.400000
 42
-0.414219
 10
155.100000
 20
46.100000
 42
-0.414219
 10
154.800000
 20
45.800000
 42
-0.414219
  0
LWPOLYLINE
  5
133
330
12
100
AcDbEntity
  8
0
100
AcDbPolyline
 43
0
 90
4
 70
1
 10
154.940000
 20
30.860000
 42
-0.414219
 10
155.240000
 20
31.160000
 42
-0.414219
 10
155.540000
 20
30.860000
 42
-0.414219
 10
155.240000
 20
30.560000
 42
-0.414219
  0
LWPOLYLINE
  5
134
330
12
100
AcDbEntity
  8
0
100
AcDbPolyline
 43
0
 90
4
 70
1
 10
154.940000
 20
42.920000
 42
-0.414219
 10
155.240000
 20
43.220000
 42
-0.414219
 10
155.540000
 20
42.920000
 42
-0.414219
 10
155.240000
 20
42.620000
 42
-0.414219
  0
LWPOLYLINE
  5
135
330
12
100
AcDbEntity
  8
0
100
AcDbPolyline
 43
0
 90
4
 70
1
 10
155.320000
 20
62.100000
 42
-0.414219
 10
155.620000
 20
62.400000
 42
-0.414219
 10
155.920000
 20
62.100000
 42
-0.414219
 10
155.620000
 20
61.800000
 42
-0.414219
  0
LWPOLYLINE
  5
136
330
12
100
AcDbEntity
  8
0
100
AcDbPolyline
 43
0
 90
4
 70
1
 10
155.570000
 20
57.530000
 42
-0.414219
 10
155.870000
 20
57.830000
 42
-0.414219
 10
156.170000
 20
57.530000
 42
-0.414219
 10
155.870000
 20
57.230000
 42
-0.414219
  0
LWPOLYLINE
  5
137
330
12
100
AcDbEntity
  8
0
100
AcDbPolyline
 43
0
 90
4
 70
1
 10
155.700000
 20
45.470000
 42
-0.414219
 10
156.000000
 20
45.770000
 42
-0.414219
 10
156.300000
 20
45.470000
 42
-0.414219
 10
156.000000
 20
45.170000
 42
-0.414219
  0
LWPOLYLINE
  5
138
330
12
100
AcDbEntity
  8
0
100
AcDbPolyline
 43
0
 90
4
 70
1
 10
155.770000
 20
48.970000
 42
-0.414219
 10
156.070000
 20
49.270000
 42
-0.414219
 10
156.370000
 20
48.970000
 42
-0.414219
 10
156.070000
 20
48.670000
 42
-0.414219
  0
LWPOLYLINE
  5
139
330
12
100
AcDbEntity
  8
0
100
AcDbPolyline
 43
0
 90
4
 70
1
 10
156.200000
 20
19.430000
 42
-0.414219
 10
156.500000
 20
19.730000
 42
-0.414219
 10
156.800000
 20
19.430000
 42
-0.414219
 10
156.500000
 20
19.130000
 42
-0.414219
  0
LWPOLYLINE
  5
13A
330
12
100
AcDbEntity
  8
0
100
AcDbPolyline
 43
0
 90
4
 70
1
 10
156.200000
 20
25.780000
 42
-0.414219
 10
156.500000
 20
26.080000
 42
-0.414219
 10
156.800000
 20
25.780000
 42
-0.414219
 10
156.500000
 20
25.480000
 42
-0.414219
  0
LWPOLYLINE
  5
13B
330
12
100
AcDbEntity
  8
0
100
AcDbPolyline
 43
0
 90
4
 70
1
 10
156.460000
 20
53.080000
 42
-0.414219
 10
156.760000
 20
53.380000
 42
-0.414219
 10
157.060000
 20
53.080000
 42
-0.414219
 10
156.760000
 20
52.780000
 42
-0.414219
  0
LWPOLYLINE
  5
13C
330
12
100
AcDbEntity
  8
0
100
AcDbPolyline
 43
0
 90
4
 70
1
 10
156.490000
 20
114.680000
 42
-0.414216
 10
157.140000
 20
115.330000
 42
-0.414216
 10
157.790000
 20
114.680000
 42
-0.414216
 10
157.140000
 20
114.030000
 42
-0.414216
  0
LWPOLYLINE
  5
13D
330
12
100
AcDbEntity
  8
0
100
AcDbPolyline
 43
0
 90
4
 70
1
 10
156.490000
 20
126.110000
 42
-0.414216
 10
157.140000
 20
126.760000
 42
-0.414216
 10
157.790000
 20
126.110000
 42
-0.414216
 10
157.140000
 20
125.460000
 42
-0.414216
  0
LWPOLYLINE
  5
13E
330
12
100
AcDbEntity
  8
0
100
AcDbPolyline
 43
0
 90
4
 70
1
 10
156.490000
 20
137.540000
 42
-0.414216
 10
157.140000
 20
138.190000
 42
-0.414216
 10
157.790000
 20
137.540000
 42
-0.414216
 10
157.140000
 20
136.890000
 42
-0.414216
  0
LWPOLYLINE
  5
13F
330
12
100
AcDbEntity
  8
0
100
AcDbPolyline
 43
0
 90
4
 70
1
 10
156.490000
 20
148.970000
 42
-0.414216
 10
157.140000
 20
149.620000
 42
-0.414216
 10
157.790000
 20
148.970000
 42
-0.414216
 10
157.140000
 20
148.320000
 42
-0.414216
  0
LWPOLYLINE
  5
140
330
12
100
AcDbEntity
  8
0
100
AcDbPolyline
 43
0
 90
4
 70
1
 10
156.840000
 20
32.760000
 42
-0.414219
 10
157.140000
 20
33.060000
 42
-0.414219
 10
157.440000
 20
32.760000
 42
-0.414219
 10
157.140000
 20
32.460000
 42
-0.414219
  0
LWPOLYLINE
  5
141
330
12
100
AcDbEntity
  8
0
100
AcDbPolyline
 43
0
 90
4
 70
1
 10
156.840000
 20
35.310000
 42
-0.414219
 10
157.140000
 20
35.610000
 42
-0.414219
 10
157.440000
 20
35.310000
 42
-0.414219
 10
157.140000
 20
35.010000
 42
-0.414219
  0
LWPOLYLINE
  5
142
330
12
100
AcDbEntity
  8
0
100
AcDbPolyline
 43
0
 90
4
 70
1
 10
156.840000
 20
37.840000
 42
-0.414219
 10
157.140000
 20
38.140000
 42
-0.414219
 10
157.440000
 20
37.840000
 42
-0.414219
 10
157.140000
 20
37.540000
 42
-0.414219
  0
LWPOLYLINE
  5
143
330
12
100
AcDbEntity
  8
0
100
AcDbPolyline
 43
0
 90
4
 70
1
 10
156.840000
 20
40.380000
 42
-0.414219
 10
157.140000
 20
40.680000
 42
-0.414219
 10
157.440000
 20
40.380000
 42
-0.414219
 10
157.140000
 20
40.080000
 42
-0.414219
  0
LWPOLYLINE
  5
144
330
12
100
AcDbEntity
  8
0
100
AcDbPolyline
 43
0
 90
4
 70
1
 10
156.840000
 20
42.290000
 42
-0.414219
 10
157.140000
 20
42.590000
 42
-0.414219
 10
157.440000
 20
42.290000
 42
-0.414219
 10
157.140000
 20
41.990000
 42
-0.414219
  0
LWPOLYLINE
  5
145
330
12
100
AcDbEntity
  8
0
100
AcDbPolyline
 43
0
 90
4
 70
1
 10
157.470000
 20
61.970000
 42
-0.414219
 10
157.770000
 20
62.270000
 42
-0.414219
 10
158.070000
 20
61.970000
 42
-0.414219
 10
157.770000
 20
61.670000
 42
-0.414219
  0
LWPOLYLINE
  5
146
330
12
100
AcDbEntity
  8
0
100
AcDbPolyline
 43
0
 90
4
 70
1
 10
159.380000
 20
44.190000
 42
-0.414219
 10
159.680000
 20
44.490000
 42
-0.414219
 10
159.980000
 20
44.190000
 42
-0.414219
 10
159.680000
 20
43.890000
 42
-0.414219
  0
LWPOLYLINE
  5
147
330
12
100
AcDbEntity
  8
0
100
AcDbPolyline
 43
0
 90
4
 70
1
 10
159.380000
 20
53.720000
 42
-0.414219
 10
159.680000
 20
54.020000
 42
-0.414219
 10
159.980000
 20
53.720000
 42
-0.414219
 10
159.680000
 20
53.420000
 42
-0.414219
  0
LWPOLYLINE
  5
148
330
12
100
AcDbEntity
  8
0
100
AcDbPolyline
 43
0
 90
4
 70
1
 10
159.380000
 20
60.070000
 42
-0.414219
 10
159.680000
 20
60.370000
 42
-0.414219
 10
159.980000
 20
60.070000
 42
-0.414219
 10
159.680000
 20
59.770000
 42
-0.414219
  0
LWPOLYLINE
  5
149
330
12
100
AcDbEntity
  8
0
100
AcDbPolyline
 43
0
 90
4
 70
1
 10
161.490000
 20
32.760000
 42
-0.414219
 10
161.790000
 20
33.060000
 42
-0.414219
 10
162.090000
 20
32.760000
 42
-0.414219
 10
161.790000
 20
32.460000
 42
-0.414219
  0
LWPOLYLINE
  5
14A
330
12
100
AcDbEntity
  8
0
100
AcDbPolyline
 43
0
 90
4
 70
1
 10
161.490000
 20
40.380000
 42
-0.414219
 10
161.790000
 20
40.680000
 42
-0.414219
 10
162.090000
 20
40.380000
 42
-0.414219
 10
161.790000
 20
40.080000
 42
-0.414219
  0
LWPOLYLINE
  5
14B
330
12
100
AcDbEntity
  8
0
100
AcDbPolyline
 43
0
 90
4
 70
1
 10
161.920000
 20
53.720000
 42
-0.414219
 10
162.220000
 20
54.020000
 42
-0.414219
 10
162.520000
 20
53.720000
 42
-0.414219
 10
162.220000
 20
53.420000
 42
-0.414219
  0
LWPOLYLINE
  5
14C
330
12
100
AcDbEntity
  8
0
100
AcDbPolyline
 43
0
 90
4
 70
1
 10
161.920000
 20
59.440000
 42
-0.414219
 10
162.220000
 20
59.740000
 42
-0.414219
 10
162.520000
 20
59.440000
 42
-0.414219
 10
162.220000
 20
59.140000
 42
-0.414219
  0
LWPOLYLINE
  5
14D
330
12
100
AcDbEntity
  8
0
100
AcDbPolyline
 43
0
 90
4
 70
1
 10
164.460000
 20
56.510000
 42
-0.414219
 10
164.760000
 20
56.810000
 42
-0.414219
 10
165.060000
 20
56.510000
 42
-0.414219
 10
164.760000
 20
56.210000
 42
-0.414219
  0
LWPOLYLINE
  5
14E
330
12
100
AcDbEntity
  8
0
100
AcDbPolyline
 43
0
 90
4
 70
1
 10
167.005000
 20
131.190000
 42
-0.414216
 10
167.780000
 20
131.965000
 42
-0.414216
 10
168.555000
 20
131.190000
 42
-0.414216
 10
167.780000
 20
130.415000
 42
-0.414216
  0
LWPOLYLINE
  5
14F
330
12
100
AcDbEntity
  8
0
100
AcDbPolyline
 43
0
 90
4
 70
1
 10
167.915000
 20
123.850000
 42
-0.414215
 10
169.840000
 20
125.775000
 42
-0.414215
 10
171.765000
 20
123.850000
 42
-0.414215
 10
169.840000
 20
121.925000
 42
-0.414215
  0
LWPOLYLINE
  5
150
330
12
100
AcDbEntity
  8
0
100
AcDbPolyline
 43
0
 90
4
 70
1
 10
168.200000
 20
150.520000
 42
-0.414214
 10
170.400000
 20
152.720000
 42
-0.414214
 10
172.600000
 20
150.520000
 42
-0.414214
 10
170.400000
 20
148.320000
 42
-0.414214
  0
LWPOLYLINE
  5
151
330
12
100
AcDbEntity
  8
0
100
AcDbPolyline
 43
0
 90
4
 70
1
 10
168.330000
 20
17.520000
 42
-0.414214
 10
170.530000
 20
19.720000
 42
-0.414214
 10
172.730000
 20
17.520000
 42
-0.414214
 10
170.530000
 20
15.320000
 42
-0.414214
  0
LWPOLYLINE
  5
152
330
12
100
AcDbEntity
  8
0
100
AcDbPolyline
 43
0
 90
4
 70
1
 10
171.125000
 20
131.190000
 42
-0.414216
 10
171.900000
 20
131.965000
 42
-0.414216
 10
172.675000
 20
131.190000
 42
-0.414216
 10
171.900000
 20
130.415000
 42
-0.414216
  0
LWPOLYLINE
  5
153
330
12
100
AcDbEntity
  8
0
100
AcDbPolyline
 43
0
 90
4
 70
1
 10
173.550000
 20
26.000000
 42
-0.414215
 10
175.000000
 20
27.450000
 42
-0.414215
 10
176.450000
 20
26.000000
 42
-0.414215
 10
175.000000
 20
24.550000
 42
-0.414215
  0
LWPOLYLINE
  5
154
330
12
100
AcDbEntity
  8
0
100
AcDbPolyline
 43
0
 90
4
 70
1
 10
178.950000
 20
29.000000
 42
-0.414217
 10
179.500000
 20
29.550000
 42
-0.414217
 10
180.050000
 20
29.000000
 42
-0.414217
 10
179.500000
 20
28.450000
 42
-0.414217
  0
LWPOLYLINE
  5
155
330
12
100
AcDbEntity
  8
0
100
AcDbPolyline
 43
0
 90
4
 70
1
 10
178.950000
 20
30.500000
 42
-0.414217
 10
179.500000
 20
31.050000
 42
-0.414217
 10
180.050000
 20
30.500000
 42
-0.414217
 10
179.500000
 20
29.950000
 42
-0.414217
  0
LWPOLYLINE
  5
156
330
12
100
AcDbEntity
  8
0
100
AcDbPolyline
 43
0
 90
4
 70
1
 10
178.950000
 20
32.000000
 42
-0.414217
 10
179.500000
 20
32.550000
 42
-0.414217
 10
180.050000
 20
32.000000
 42
-0.414217
 10
179.500000
 20
31.450000
 42
-0.414217
  0
LWPOLYLINE
  5
157
330
12
100
AcDbEntity
  8
0
100
AcDbPolyline
 43
0
 90
4
 70
1
 10
178.950000
 20
136.000000
 42
-0.414217
 10
179.500000
 20
136.550000
 42
-0.414217
 10
180.050000
 20
136.000000
 42
-0.414217
 10
179.500000
 20
135.450000
 42
-0.414217
  0
LWPOLYLINE
  5
158
330
12
100
AcDbEntity
  8
0
100
AcDbPolyline
 43
0
 90
4
 70
1
 10
178.950000
 20
137.500000
 42
-0.414217
 10
179.500000
 20
138.050000
 42
-0.414217
 10
180.050000
 20
137.500000
 42
-0.414217
 10
179.500000
 20
136.950000
 42
-0.414217
  0
LWPOLYLINE
  5
159
330
12
100
AcDbEntity
  8
0
100
AcDbPolyline
 43
0
 90
4
 70
1
 10
178.950000
 20
139.000000
 42
-0.414217
 10
179.500000
 20
139.550000
 42
-0.414217
 10
180.050000
 20
139.000000
 42
-0.414217
 10
179.500000
 20
138.450000
 42
-0.414217
  0
LWPOLYLINE
  5
15A
330
12
100
AcDbEntity
  8
0
100
AcDbPolyline
 43
0
 90
4
 70
1
 10
187.950000
 20
29.000000
 42
-0.414217
 10
188.500000
 20
29.550000
 42
-0.414217
 10
189.050000
 20
29.000000
 42
-0.414217
 10
188.500000
 20
28.450000
 42
-0.414217
  0
LWPOLYLINE
  5
15B
330
12
100
AcDbEntity
  8
0
100
AcDbPolyline
 43
0
 90
4
 70
1
 10
187.950000
 20
30.500000
 42
-0.414217
 10
188.500000
 20
31.050000
 42
-0.414217
 10
189.050000
 20
30.500000
 42
-0.414217
 10
188.500000
 20
29.950000
 42
-0.414217
  0
LWPOLYLINE
  5
15C
330
12
100
AcDbEntity
  8
0
100
AcDbPolyline
 43
0
 90
4
 70
1
 10
187.950000
 20
32.000000
 42
-0.414217
 10
188.500000
 20
32.550000
 42
-0.414217
 10
189.050000
 20
32.000000
 42
-0.414217
 10
188.500000
 20
31.450000
 42
-0.414217
  0
LWPOLYLINE
  5
15D
330
12
100
AcDbEntity
  8
0
100
AcDbPolyline
 43
0
 90
4
 70
1
 10
187.950000
 20
82.500000
 42
-0.414217
 10
188.500000
 20
83.050000
 42
-0.414217
 10
189.050000
 20
82.500000
 42
-0.414217
 10
188.500000
 20
81.950000
 42
-0.414217
  0
LWPOLYLINE
  5
15E
330
12
100
AcDbEntity
  8
0
100
AcDbPolyline
 43
0
 90
4
 70
1
 10
187.950000
 20
84.000000
 42
-0.414217
 10
188.500000
 20
84.550000
 42
-0.414217
 10
189.050000
 20
84.000000
 42
-0.414217
 10
188.500000
 20
83.450000
 42
-0.414217
  0
LWPOLYLINE
  5
15F
330
12
100
AcDbEntity
  8
0
100
AcDbPolyline
 43
0
 90
4
 70
1
 10
187.950000
 20
85.500000
 42
-0.414217
 10
188.500000
 20
86.050000
 42
-0.414217
 10
189.050000
 20
85.500000
 42
-0.414217
 10
188.500000
 20
84.950000
 42
-0.414217
  0
LWPOLYLINE
  5
160
330
12
100
AcDbEntity
  8
0
100
AcDbPolyline
 43
0
 90
4
 70
1
 10
187.950000
 20
136.000000
 42
-0.414217
 10
188.500000
 20
136.550000
 42
-0.414217
 10
189.050000
 20
136.000000
 42
-0.414217
 10
188.500000
 20
135.450000
 42
-0.414217
  0
LWPOLYLINE
  5
161
330
12
100
AcDbEntity
  8
0
100
AcDbPolyline
 43
0
 90
4
 70
1
 10
187.950000
 20
137.500000
 42
-0.414217
 10
188.500000
 20
138.050000
 42
-0.414217
 10
189.050000
 20
137.500000
 42
-0.414217
 10
188.500000
 20
136.950000
 42
-0.414217
  0
LWPOLYLINE
  5
162
330
12
100
AcDbEntity
  8
0
100
AcDbPolyline
 43
0
 90
4
 70
1
 10
187.950000
 20
139.000000
 42
-0.414217
 10
188.500000
 20
139.550000
 42
-0.414217
 10
189.050000
 20
139.000000
 42
-0.414217
 10
188.500000
 20
138.450000
 42
-0.414217
  0
LWPOLYLINE
  5
163
330
12
100
AcDbEntity
  8
0
100
AcDbPolyline
 43
0
 90
4
 70
1
 10
191.550000
 20
142.000000
 42
-0.414215
 10
193.000000
 20
143.450000
 42
-0.414215
 10
194.450000
 20
142.000000
 42
-0.414215
 10
193.000000
 20
140.550000
 42
-0.414215
  0
LWPOLYLINE
  5
164
330
12
100
AcDbEntity
  8
0
100
AcDbPolyline
 43
0
 90
4
 70
1
 10
195.330000
 20
17.520000
 42
-0.414214
 10
197.530000
 20
19.720000
 42
-0.414214
 10
199.730000
 20
17.520000
 42
-0.414214
 10
197.530000
 20
15.320000
 42
-0.414214
  0
LWPOLYLINE
  5
165
330
12
100
AcDbEntity
  8
0
100
AcDbPolyline
 43
0
 90
4
 70
1
 10
195.330000
 20
150.520000
 42
-0.414214
 10
197.530000
 20
152.720000
 42
-0.414214
 10
199.730000
 20
150.520000
 42
-0.414214
 10
197.530000
 20
148.320000
 42
-0.414214
  0
LWPOLYLINE
  5
166
330
12
100
AcDbEntity
  8
0
100
AcDbPolyline
 43
0
 90
4
 70
1
 10
197.310000
 20
34.420000
 42
-0.414219
 10
197.610000
 20
34.720000
 42
-0.414219
 10
197.910000
 20
34.420000
 42
-0.414219
 10
197.610000
 20
34.120000
 42
-0.414219
  0
LWPOLYLINE
  5
167
330
12
100
AcDbEntity
  8
0
100
AcDbPolyline
 43
0
 90
4
 70
1
 10
197.310000
 20
42.290000
 42
-0.414219
 10
197.610000
 20
42.590000
 42
-0.414219
 10
197.910000
 20
42.290000
 42
-0.414219
 10
197.610000
 20
41.990000
 42
-0.414219
  0
LWPOLYLINE
  5
168
330
12
100
AcDbEntity
  8
0
100
AcDbPolyline
 43
0
 90
4
 70
1
 10
197.310000
 20
50.540000
 42
-0.414219
 10
197.610000
 20
50.840000
 42
-0.414219
 10
197.910000
 20
50.540000
 42
-0.414219
 10
197.610000
 20
50.240000
 42
-0.414219
  0
LWPOLYLINE
  5
169
330
12
100
AcDbEntity
  8
0
100
AcDbPolyline
 43
0
 90
4
 70
1
 10
201.760000
 20
75.310000
 42
-0.414219
 10
202.060000
 20
75.610000
 42
-0.414219
 10
202.360000
 20
75.310000
 42
-0.414219
 10
202.060000
 20
75.010000
 42
-0.414219
  0
LWPOLYLINE
  5
16A
330
12
100
AcDbEntity
  8
0
100
AcDbPolyline
 43
0
 90
4
 70
1
 10
204.680000
 20
62.610000
 42
-0.414219
 10
204.980000
 20
62.910000
 42
-0.414219
 10
205.280000
 20
62.610000
 42
-0.414219
 10
204.980000
 20
62.310000
 42
-0.414219
  0
LWPOLYLINE
  5
16B
330
12
100
AcDbEntity
  8
0
100
AcDbPolyline
 43
0
 90
4
 70
1
 10
205.560000
 20
39.750000
 42
-0.414219
 10
205.860000
 20
40.050000
 42
-0.414219
 10
206.160000
 20
39.750000
 42
-0.414219
 10
205.860000
 20
39.450000
 42
-0.414219
  0
LWPOLYLINE
  5
16C
330
12
100
AcDbEntity
  8
0
100
AcDbPolyline
 43
0
 90
4
 70
1
 10
205.560000
 20
46.100000
 42
-0.414219
 10
205.860000
 20
46.400000
 42
-0.414219
 10
206.160000
 20
46.100000
 42
-0.414219
 10
205.860000
 20
45.800000
 42
-0.414219
  0
LWPOLYLINE
  5
16D
330
12
100
AcDbEntity
  8
0
100
AcDbPolyline
 43
0
 90
4
 70
1
 10
205.560000
 20
65.780000
 42
-0.414219
 10
205.860000
 20
66.080000
 42
-0.414219
 10
206.160000
 20
65.780000
 42
-0.414219
 10
205.860000
 20
65.480000
 42
-0.414219
  0
LWPOLYLINE
  5
16E
330
12
100
AcDbEntity
  8
0
100
AcDbPolyline
 43
0
 90
4
 70
1
 10
205.560000
 20
84.960000
 42
-0.414219
 10
205.860000
 20
85.260000
 42
-0.414219
 10
206.160000
 20
84.960000
 42
-0.414219
 10
205.860000
 20
84.660000
 42
-0.414219
  0
LWPOLYLINE
  5
16F
330
12
100
AcDbEntity
  8
0
100
AcDbPolyline
 43
0
 90
4
 70
1
 10
205.800000
 20
146.430000
 42
-0.414216
 10
206.500000
 20
147.130000
 42
-0.414216
 10
207.200000
 20
146.430000
 42
-0.414216
 10
206.500000
 20
145.730000
 42
-0.414216
  0
LWPOLYLINE
  5
170
330
12
100
AcDbEntity
  8
0
100
AcDbPolyline
 43
0
 90
4
 70
1
 10
205.800000
 20
151.510000
 42
-0.414216
 10
206.500000
 20
152.210000
 42
-0.414216
 10
207.200000
 20
151.510000
 42
-0.414216
 10
206.500000
 20
150.810000
 42
-0.414216
  0
LWPOLYLINE
  5
171
330
12
100
AcDbEntity
  8
0
100
AcDbPolyline
 43
0
 90
4
 70
1
 10
206.580000
 20
32.890000
 42
-0.414217
 10
207.130000
 20
33.440000
 42
-0.414217
 10
207.680000
 20
32.890000
 42
-0.414217
 10
207.130000
 20
32.340000
 42
-0.414217
  0
LWPOLYLINE
  5
172
330
12
100
AcDbEntity
  8
0
100
AcDbPolyline
 43
0
 90
4
 70
1
 10
208.610000
 20
48.510000
 42
-0.414219
 10
208.910000
 20
48.810000
 42
-0.414219
 10
209.210000
 20
48.510000
 42
-0.414219
 10
208.910000
 20
48.210000
 42
-0.414219
  0
LWPOLYLINE
  5
173
330
12
100
AcDbEntity
  8
0
100
AcDbPolyline
 43
0
 90
4
 70
1
 10
210.490000
 20
23.240000
 42
-0.414218
 10
210.940000
 20
23.690000
 42
-0.414218
 10
211.390000
 20
23.240000
 42
-0.414218
 10
210.940000
 20
22.790000
 42
-0.414218
  0
LWPOLYLINE
  5
174
330
12
100
AcDbEntity
  8
0
100
AcDbPolyline
 43
0
 90
4
 70
1
 10
211.150000
 20
48.510000
 42
-0.414219
 10
211.450000
 20
48.810000
 42
-0.414219
 10
211.750000
 20
48.510000
 42
-0.414219
 10
211.450000
 20
48.210000
 42
-0.414219
  0
LWPOLYLINE
  5
175
330
12
100
AcDbEntity
  8
0
100
AcDbPolyline
 43
0
 90
4
 70
1
 10
212.680000
 20
56.390000
 42
-0.414219
 10
212.980000
 20
56.690000
 42
-0.414219
 10
213.280000
 20
56.390000
 42
-0.414219
 10
212.980000
 20
56.090000
 42
-0.414219
  0
LWPOLYLINE
  5
176
330
12
100
AcDbEntity
  8
0
100
AcDbPolyline
 43
0
 90
4
 70
1
 10
213.040000
 20
23.240000
 42
-0.414218
 10
213.490000
 20
23.690000
 42
-0.414218
 10
213.940000
 20
23.240000
 42
-0.414218
 10
213.490000
 20
22.790000
 42
-0.414218
  0
LWPOLYLINE
  5
177
330
12
100
AcDbEntity
  8
0
100
AcDbPolyline
 43
0
 90
4
 70
1
 10
213.820000
 20
82.290000
 42
-0.414219
 10
214.120000
 20
82.590000
 42
-0.414219
 10
214.420000
 20
82.290000
 42
-0.414219
 10
214.120000
 20
81.990000
 42
-0.414219
  0
LWPOLYLINE
  5
178
330
12
100
AcDbEntity
  8
0
100
AcDbPolyline
 43
0
 90
4
 70
1
 10
213.820000
 20
87.500000
 42
-0.414219
 10
214.120000
 20
87.800000
 42
-0.414219
 10
214.420000
 20
87.500000
 42
-0.414219
 10
214.120000
 20
87.200000
 42
-0.414219
  0
LWPOLYLINE
  5
179
330
12
100
AcDbEntity
  8
0
100
AcDbPolyline
 43
0
 90
4
 70
1
 10
214.250000
 20
61.970000
 42
-0.414219
 10
214.550000
 20
62.270000
 42
-0.414219
 10
214.850000
 20
61.970000
 42
-0.414219
 10
214.550000
 20
61.670000
 42
-0.414219
  0
LWPOLYLINE
  5
17A
330
12
100
AcDbEntity
  8
0
100
AcDbPolyline
 43
0
 90
4
 70
1
 10
215.090000
 20
18.160000
 42
-0.414219
 10
215.390000
 20
18.460000
 42
-0.414219
 10
215.690000
 20
18.160000
 42
-0.414219
 10
215.390000
 20
17.860000
 42
-0.414219
  0
LWPOLYLINE
  5
17B
330
12
100
AcDbEntity
  8
0
100
AcDbPolyline
 43
0
 90
4
 70
1
 10
215.340000
 20
78.050000
 42
-0.414219
 10
215.640000
 20
78.350000
 42
-0.414219
 10
215.940000
 20
78.050000
 42
-0.414219
 10
215.640000
 20
77.750000
 42
-0.414219
  0
LWPOLYLINE
  5
17C
330
12
100
AcDbEntity
  8
0
100
AcDbPolyline
 43
0
 90
4
 70
1
 10
215.960000
 20
146.430000
 42
-0.414216
 10
216.660000
 20
147.130000
 42
-0.414216
 10
217.360000
 20
146.430000
 42
-0.414216
 10
216.660000
 20
145.730000
 42
-0.414216
  0
LWPOLYLINE
  5
17D
330
12
100
AcDbEntity
  8
0
100
AcDbPolyline
 43
0
 90
4
 70
1
 10
215.960000
 20
151.510000
 42
-0.414216
 10
216.660000
 20
152.210000
 42
-0.414216
 10
217.360000
 20
151.510000
 42
-0.414216
 10
216.660000
 20
150.810000
 42
-0.414216
  0
LWPOLYLINE
  5
17E
330
12
100
AcDbEntity
  8
0
100
AcDbPolyline
 43
0
 90
4
 70
1
 10
216.740000
 20
32.890000
 42
-0.414217
 10
217.290000
 20
33.440000
 42
-0.414217
 10
217.840000
 20
32.890000
 42
-0.414217
 10
217.290000
 20
32.340000
 42
-0.414217
  0
LWPOLYLINE
  5
17F
330
12
100
AcDbEntity
  8
0
100
AcDbPolyline
 43
0
 90
4
 70
1
 10
216.990000
 20
53.080000
 42
-0.414219
 10
217.290000
 20
53.380000
 42
-0.414219
 10
217.590000
 20
53.080000
 42
-0.414219
 10
217.290000
 20
52.780000
 42
-0.414219
  0
LWPOLYLINE
  5
180
330
12
100
AcDbEntity
  8
0
100
AcDbPolyline
 43
0
 90
4
 70
1
 10
217.630000
 20
78.490000
 42
-0.414219
 10
217.930000
 20
78.790000
 42
-0.414219
 10
218.230000
 20
78.490000
 42
-0.414219
 10
217.930000
 20
78.190000
 42
-0.414219
  0
LWPOLYLINE
  5
181
330
12
100
AcDbEntity
  8
0
100
AcDbPolyline
 43
0
 90
4
 70
1
 10
218.900000
 20
21.770000
 42
-0.414219
 10
219.200000
 20
22.070000
 42
-0.414219
 10
219.500000
 20
21.770000
 42
-0.414219
 10
219.200000
 20
21.470000
 42
-0.414219
  0
LWPOLYLINE
  5
182
330
12
100
AcDbEntity
  8
0
100
AcDbPolyline
 43
0
 90
4
 70
1
 10
219.100000
 20
45.590000
 42
-0.414219
 10
219.400000
 20
45.890000
 42
-0.414219
 10
219.700000
 20
45.590000
 42
-0.414219
 10
219.400000
 20
45.290000
 42
-0.414219
  0
LWPOLYLINE
  5
183
330
12
100
AcDbEntity
  8
0
100
AcDbPolyline
 43
0
 90
4
 70
1
 10
219.530000
 20
41.020000
 42
-0.414219
 10
219.830000
 20
41.320000
 42
-0.414219
 10
220.130000
 20
41.020000
 42
-0.414219
 10
219.830000
 20
40.720000
 42
-0.414219
  0
LWPOLYLINE
  5
184
330
12
100
AcDbEntity
  8
0
100
AcDbPolyline
 43
0
 90
4
 70
1
 10
219.530000
 20
53.080000
 42
-0.414219
 10
219.830000
 20
53.380000
 42
-0.414219
 10
220.130000
 20
53.080000
 42
-0.414219
 10
219.830000
 20
52.780000
 42
-0.414219
  0
LWPOLYLINE
  5
185
330
12
100
AcDbEntity
  8
0
100
AcDbPolyline
 43
0
 90
4
 70
1
 10
219.530000
 20
59.440000
 42
-0.414219
 10
219.830000
 20
59.740000
 42
-0.414219
 10
220.130000
 20
59.440000
 42
-0.414219
 10
219.830000
 20
59.140000
 42
-0.414219
  0
LWPOLYLINE
  5
186
330
12
100
AcDbEntity
  8
0
100
AcDbPolyline
 43
0
 90
4
 70
1
 10
219.740000
 20
34.670000
 42
-0.414219
 10
220.040000
 20
34.970000
 42
-0.414219
 10
220.340000
 20
34.670000
 42
-0.414219
 10
220.040000
 20
34.370000
 42
-0.414219
  0
LWPOLYLINE
  5
187
330
12
100
AcDbEntity
  8
0
100
AcDbPolyline
 43
0
 90
4
 70
1
 10
220.170000
 20
78.490000
 42
-0.414219
 10
220.470000
 20
78.790000
 42
-0.414219
 10
220.770000
 20
78.490000
 42
-0.414219
 10
220.470000
 20
78.190000
 42
-0.414219
  0
LWPOLYLINE
  5
188
330
12
100
AcDbEntity
  8
0
100
AcDbPolyline
 43
0
 90
4
 70
1
 10
221.440000
 20
72.770000
 42
-0.414219
 10
221.740000
 20
73.070000
 42
-0.414219
 10
222.040000
 20
72.770000
 42
-0.414219
 10
221.740000
 20
72.470000
 42
-0.414219
  0
LWPOLYLINE
  5
189
330
12
100
AcDbEntity
  8
0
100
AcDbPolyline
 43
0
 90
4
 70
1
 10
222.080000
 20
53.080000
 42
-0.414219
 10
222.380000
 20
53.380000
 42
-0.414219
 10
222.680000
 20
53.080000
 42
-0.414219
 10
222.380000
 20
52.780000
 42
-0.414219
  0
LWPOLYLINE
  5
18A
330
12
100
AcDbEntity
  8
0
100
AcDbPolyline
 43
0
 90
4
 70
1
 10
222.080000
 20
57.280000
 42
-0.414219
 10
222.380000
 20
57.580000
 42
-0.414219
 10
222.680000
 20
57.280000
 42
-0.414219
 10
222.380000
 20
56.980000
 42
-0.414219
  0
LWPOLYLINE
  5
18B
330
12
100
AcDbEntity
  8
0
100
AcDbPolyline
 43
0
 90
4
 70
1
 10
222.080000
 20
78.490000
 42
-0.414219
 10
222.380000
 20
78.790000
 42
-0.414219
 10
222.680000
 20
78.490000
 42
-0.414219
 10
222.380000
 20
78.190000
 42
-0.414219
  0
LWPOLYLINE
  5
18C
330
12
100
AcDbEntity
  8
0
100
AcDbPolyline
 43
0
 90
4
 70
1
 10
222.710000
 20
18.160000
 42
-0.414219
 10
223.010000
 20
18.460000
 42
-0.414219
 10
223.310000
 20
18.160000
 42
-0.414219
 10
223.010000
 20
17.860000
 42
-0.414219
  0
LWPOLYLINE
  5
18D
330
12
100
AcDbEntity
  8
0
100
AcDbPolyline
 43
0
 90
4
 70
1
 10
222.840000
 20
22.480000
 42
-0.414219
 10
223.140000
 20
22.780000
 42
-0.414219
 10
223.440000
 20
22.480000
 42
-0.414219
 10
223.140000
 20
22.180000
 42
-0.414219
  0
LWPOLYLINE
  5
18E
330
12
100
AcDbEntity
  8
0
100
AcDbPolyline
 43
0
 90
4
 70
1
 10
223.630000
 20
114.680000
 42
-0.414216
 10
224.280000
 20
115.330000
 42
-0.414216
 10
224.930000
 20
114.680000
 42
-0.414216
 10
224.280000
 20
114.030000
 42
-0.414216
  0
LWPOLYLINE
  5
18F
330
12
100
AcDbEntity
  8
0
100
AcDbPolyline
 43
0
 90
4
 70
1
 10
223.630000
 20
126.110000
 42
-0.414216
 10
224.280000
 20
126.760000
 42
-0.414216
 10
224.930000
 20
126.110000
 42
-0.414216
 10
224.280000
 20
125.460000
 42
-0.414216
  0
LWPOLYLINE
  5
190
330
12
100
AcDbEntity
  8
0
100
AcDbPolyline
 43
0
 90
4
 70
1
 10
223.630000
 20
137.540000
 42
-0.414216
 10
224.280000
 20
138.190000
 42
-0.414216
 10
224.930000
 20
137.540000
 42
-0.414216
 10
224.280000
 20
136.890000
 42
-0.414216
  0
LWPOLYLINE
  5
191
330
12
100
AcDbEntity
  8
0
100
AcDbPolyline
 43
0
 90
4
 70
1
 10
223.630000
 20
148.970000
 42
-0.414216
 10
224.280000
 20
149.620000
 42
-0.414216
 10
224.930000
 20
148.970000
 42
-0.414216
 10
224.280000
 20
148.320000
 42
-0.414216
  0
LWPOLYLINE
  5
192
330
12
100
AcDbEntity
  8
0
100
AcDbPolyline
 43
0
 90
4
 70
1
 10
224.620000
 20
53.080000
 42
-0.414219
 10
224.920000
 20
53.380000
 42
-0.414219
 10
225.220000
 20
53.080000
 42
-0.414219
 10
224.920000
 20
52.780000
 42
-0.414219
  0
LWPOLYLINE
  5
193
330
12
100
AcDbEntity
  8
0
100
AcDbPolyline
 43
0
 90
4
 70
1
 10
225.120000
 20
89.280000
 42
-0.414219
 10
225.420000
 20
89.580000
 42
-0.414219
 10
225.720000
 20
89.280000
 42
-0.414219
 10
225.420000
 20
88.980000
 42
-0.414219
  0
LWPOLYLINE
  5
194
330
12
100
AcDbEntity
  8
0
100
AcDbPolyline
 43
0
 90
4
 70
1
 10
225.250000
 20
42.670000
 42
-0.414219
 10
225.550000
 20
42.970000
 42
-0.414219
 10
225.850000
 20
42.670000
 42
-0.414219
 10
225.550000
 20
42.370000
 42
-0.414219
  0
LWPOLYLINE
  5
195
330
12
100
AcDbEntity
  8
0
100
AcDbPolyline
 43
0
 90
4
 70
1
 10
225.250000
 20
44.190000
 42
-0.414219
 10
225.550000
 20
44.490000
 42
-0.414219
 10
225.850000
 20
44.190000
 42
-0.414219
 10
225.550000
 20
43.890000
 42
-0.414219
  0
LWPOLYLINE
  5
196
330
12
100
AcDbEntity
  8
0
100
AcDbPolyline
 43
0
 90
4
 70
1
 10
226.800000
 20
73.990000
 42
-0.414214
 10
229.000000
 20
76.190000
 42
-0.414214
 10
231.200000
 20
73.990000
 42
-0.414214
 10
229.000000
 20
71.790000
 42
-0.414214
  0
LWPOLYLINE
  5
197
330
12
100
AcDbEntity
  8
0
100
AcDbPolyline
 43
0
 90
4
 70
1
 10
227.160000
 20
53.080000
 42
-0.414219
 10
227.460000
 20
53.380000
 42
-0.414219
 10
227.760000
 20
53.080000
 42
-0.414219
 10
227.460000
 20
52.780000
 42
-0.414219
  0
LWPOLYLINE
  5
198
330
12
100
AcDbEntity
  8
0
100
AcDbPolyline
 43
0
 90
4
 70
1
 10
227.160000
 20
58.170000
 42
-0.414219
 10
227.460000
 20
58.470000
 42
-0.414219
 10
227.760000
 20
58.170000
 42
-0.414219
 10
227.460000
 20
57.870000
 42
-0.414219
  0
LWPOLYLINE
  5
199
330
12
100
AcDbEntity
  8
0
100
AcDbPolyline
 43
0
 90
4
 70
1
 10
227.160000
 20
60.450000
 42
-0.414219
 10
227.460000
 20
60.750000
 42
-0.414219
 10
227.760000
 20
60.450000
 42
-0.414219
 10
227.460000
 20
60.150000
 42
-0.414219
  0
LWPOLYLINE
  5
19A
330
12
100
AcDbEntity
  8
0
100
AcDbPolyline
 43
0
 90
4
 70
1
 10
227.160000
 20
62.230000
 42
-0.414219
 10
227.460000
 20
62.530000
 42
-0.414219
 10
227.760000
 20
62.230000
 42
-0.414219
 10
227.460000
 20
61.930000
 42
-0.414219
  0
LWPOLYLINE
  5
19B
330
12
100
AcDbEntity
  8
0
100
AcDbPolyline
 43
0
 90
4
 70
1
 10
227.790000
 20
44.190000
 42
-0.414219
 10
228.090000
 20
44.490000
 42
-0.414219
 10
228.390000
 20
44.190000
 42
-0.414219
 10
228.090000
 20
43.890000
 42
-0.414219
  0
LWPOLYLINE
  5
19C
330
12
100
AcDbEntity
  8
0
100
AcDbPolyline
 43
0
 90
4
 70
1
 10
229.060000
 20
52.880000
 42
-0.414219
 10
229.360000
 20
53.180000
 42
-0.414219
 10
229.660000
 20
52.880000
 42
-0.414219
 10
229.360000
 20
52.580000
 42
-0.414219
  0
LWPOLYLINE
  5
19D
330
12
100
AcDbEntity
  8
0
100
AcDbPolyline
 43
0
 90
4
 70
1
 10
230.330000
 20
18.160000
 42
-0.414219
 10
230.630000
 20
18.460000
 42
-0.414219
 10
230.930000
 20
18.160000
 42
-0.414219
 10
230.630000
 20
17.860000
 42
-0.414219
  0
LWPOLYLINE
  5
19E
330
12
100
AcDbEntity
  8
0
100
AcDbPolyline
 43
0
 90
4
 70
1
 10
231.600000
 20
36.580000
 42
-0.414219
 10
231.900000
 20
36.880000
 42
-0.414219
 10
232.200000
 20
36.580000
 42
-0.414219
 10
231.900000
 20
36.280000
 42
-0.414219
  0
LWPOLYLINE
  5
19F
330
12
100
AcDbEntity
  8
0
100
AcDbPolyline
 43
0
 90
4
 70
1
 10
231.600000
 20
41.020000
 42
-0.414219
 10
231.900000
 20
41.320000
 42
-0.414219
 10
232.200000
 20
41.020000
 42
-0.414219
 10
231.900000
 20
40.720000
 42
-0.414219
  0
LWPOLYLINE
  5
1A0
330
12
100
AcDbEntity
  8
0
100
AcDbPolyline
 43
0
 90
4
 70
1
 10
231.600000
 20
45.900000
 42
-0.414219
 10
231.900000
 20
46.200000
 42
-0.414219
 10
232.200000
 20
45.900000
 42
-0.414219
 10
231.900000
 20
45.600000
 42
-0.414219
  0
LWPOLYLINE
  5
1A1
330
12
100
AcDbEntity
  8
0
100
AcDbPolyline
 43
0
 90
4
 70
1
 10
231.600000
 20
96.900000
 42
-0.414219
 10
231.900000
 20
97.200000
 42
-0.414219
 10
232.200000
 20
96.900000
 42
-0.414219
 10
231.900000
 20
96.600000
 42
-0.414219
  0
LWPOLYLINE
  5
1A2
330
12
100
AcDbEntity
  8
0
100
AcDbPolyline
 43
0
 90
4
 70
1
 10
231.600000
 20
98.810000
 42
-0.414219
 10
231.900000
 20
99.110000
 42
-0.414219
 10
232.200000
 20
98.810000
 42
-0.414219
 10
231.900000
 20
98.510000
 42
-0.414219
  0
LWPOLYLINE
  5
1A3
330
12
100
AcDbEntity
  8
0
100
AcDbPolyline
 43
0
 90
4
 70
1
 10
232.230000
 20
48.010000
 42
-0.414219
 10
232.530000
 20
48.310000
 42
-0.414219
 10
232.830000
 20
48.010000
 42
-0.414219
 10
232.530000
 20
47.710000
 42
-0.414219
  0
LWPOLYLINE
  5
1A4
330
12
100
AcDbEntity
  8
0
100
AcDbPolyline
 43
0
 90
4
 70
1
 10
233.510000
 20
17.520000
 42
-0.414219
 10
233.810000
 20
17.820000
 42
-0.414219
 10
234.110000
 20
17.520000
 42
-0.414219
 10
233.810000
 20
17.220000
 42
-0.414219
  0
LWPOLYLINE
  5
1A5
330
12
100
AcDbEntity
  8
0
100
AcDbPolyline
 43
0
 90
4
 70
1
 10
233.510000
 20
31.930000
 42
-0.414219
 10
233.810000
 20
32.230000
 42
-0.414219
 10
234.110000
 20
31.930000
 42
-0.414219
 10
233.810000
 20
31.630000
 42
-0.414219
  0
LWPOLYLINE
  5
1A6
330
12
100
AcDbEntity
  8
0
100
AcDbPolyline
 43
0
 90
4
 70
1
 10
233.510000
 20
96.900000
 42
-0.414219
 10
233.810000
 20
97.200000
 42
-0.414219
 10
234.110000
 20
96.900000
 42
-0.414219
 10
233.810000
 20
96.600000
 42
-0.414219
  0
LWPOLYLINE
  5
1A7
330
12
100
AcDbEntity
  8
0
100
AcDbPolyline
 43
0
 90
4
 70
1
 10
233.510000
 20
98.810000
 42
-0.414219
 10
233.810000
 20
99.110000
 42
-0.414219
 10
234.110000
 20
98.810000
 42
-0.414219
 10
233.810000
 20
98.510000
 42
-0.414219
  0
LWPOLYLINE
  5
1A8
330
12
100
AcDbEntity
  8
0
100
AcDbPolyline
 43
0
 90
4
 70
1
 10
235.410000
 20
23.880000
 42
-0.414219
 10
235.710000
 20
24.180000
 42
-0.414219
 10
236.010000
 20
23.880000
 42
-0.414219
 10
235.710000
 20
23.580000
 42
-0.414219
  0
LWPOLYLINE
  5
1A9
330
12
100
AcDbEntity
  8
0
100
AcDbPolyline
 43
0
 90
4
 70
1
 10
235.410000
 20
27.050000
 42
-0.414219
 10
235.710000
 20
27.350000
 42
-0.414219
 10
236.010000
 20
27.050000
 42
-0.414219
 10
235.710000
 20
26.750000
 42
-0.414219
  0
LWPOLYLINE
  5
1AA
330
12
100
AcDbEntity
  8
0
100
AcDbPolyline
 43
0
 90
4
 70
1
 10
235.410000
 20
58.170000
 42
-0.414219
 10
235.710000
 20
58.470000
 42
-0.414219
 10
236.010000
 20
58.170000
 42
-0.414219
 10
235.710000
 20
57.870000
 42
-0.414219
  0
LWPOLYLINE
  5
1AB
330
12
100
AcDbEntity
  8
0
100
AcDbPolyline
 43
0
 90
4
 70
1
 10
235.410000
 20
96.900000
 42
-0.414219
 10
235.710000
 20
97.200000
 42
-0.414219
 10
236.010000
 20
96.900000
 42
-0.414219
 10
235.710000
 20
96.600000
 42
-0.414219
  0
LWPOLYLINE
  5
1AC
330
12
100
AcDbEntity
  8
0
100
AcDbPolyline
 43
0
 90
4
 70
1
 10
235.410000
 20
98.810000
 42
-0.414219
 10
235.710000
 20
99.110000
 42
-0.414219
 10
236.010000
 20
98.810000
 42
-0.414219
 10
235.710000
 20
98.510000
 42
-0.414219
  0
LWPOLYLINE
  5
1AD
330
12
100
AcDbEntity
  8
0
100
AcDbPolyline
 43
0
 90
4
 70
1
 10
236.050000
 20
64.510000
 42
-0.414219
 10
236.350000
 20
64.810000
 42
-0.414219
 10
236.650000
 20
64.510000
 42
-0.414219
 10
236.350000
 20
64.210000
 42
-0.414219
  0
LWPOLYLINE
  5
1AE
330
12
100
AcDbEntity
  8
0
100
AcDbPolyline
 43
0
 90
4
 70
1
 10
237.320000
 20
32.760000
 42
-0.414219
 10
237.620000
 20
33.060000
 42
-0.414219
 10
237.920000
 20
32.760000
 42
-0.414219
 10
237.620000
 20
32.460000
 42
-0.414219
  0
LWPOLYLINE
  5
1AF
330
12
100
AcDbEntity
  8
0
100
AcDbPolyline
 43
0
 90
4
 70
1
 10
237.320000
 20
35.310000
 42
-0.414219
 10
237.620000
 20
35.610000
 42
-0.414219
 10
237.920000
 20
35.310000
 42
-0.414219
 10
237.620000
 20
35.010000
 42
-0.414219
  0
LWPOLYLINE
  5
1B0
330
12
100
AcDbEntity
  8
0
100
AcDbPolyline
 43
0
 90
4
 70
1
 10
237.320000
 20
37.840000
 42
-0.414219
 10
237.620000
 20
38.140000
 42
-0.414219
 10
237.920000
 20
37.840000
 42
-0.414219
 10
237.620000
 20
37.540000
 42
-0.414219
  0
LWPOLYLINE
  5
1B1
330
12
100
AcDbEntity
  8
0
100
AcDbPolyline
 43
0
 90
4
 70
1
 10
237.320000
 20
42.920000
 42
-0.414219
 10
237.620000
 20
43.220000
 42
-0.414219
 10
237.920000
 20
42.920000
 42
-0.414219
 10
237.620000
 20
42.620000
 42
-0.414219
  0
LWPOLYLINE
  5
1B2
330
12
100
AcDbEntity
  8
0
100
AcDbPolyline
 43
0
 90
4
 70
1
 10
237.320000
 20
45.470000
 42
-0.414219
 10
237.620000
 20
45.770000
 42
-0.414219
 10
237.920000
 20
45.470000
 42
-0.414219
 10
237.620000
 20
45.170000
 42
-0.414219
  0
LWPOLYLINE
  5
1B3
330
12
100
AcDbEntity
  8
0
100
AcDbPolyline
 43
0
 90
4
 70
1
 10
237.320000
 20
96.900000
 42
-0.414219
 10
237.620000
 20
97.200000
 42
-0.414219
 10
237.920000
 20
96.900000
 42
-0.414219
 10
237.620000
 20
96.600000
 42
-0.414219
  0
LWPOLYLINE
  5
1B4
330
12
100
AcDbEntity
  8
0
100
AcDbPolyline
 43
0
 90
4
 70
1
 10
237.320000
 20
98.810000
 42
-0.414219
 10
237.620000
 20
99.110000
 42
-0.414219
 10
237.920000
 20
98.810000
 42
-0.414219
 10
237.620000
 20
98.510000
 42
-0.414219
  0
LWPOLYLINE
  5
1B5
330
12
100
AcDbEntity
  8
0
100
AcDbPolyline
 43
0
 90
4
 70
1
 10
237.950000
 20
48.010000
 42
-0.414219
 10
238.250000
 20
48.310000
 42
-0.414219
 10
238.550000
 20
48.010000
 42
-0.414219
 10
238.250000
 20
47.710000
 42
-0.414219
  0
LWPOLYLINE
  5
1B6
330
12
100
AcDbEntity
  8
0
100
AcDbPolyline
 43
0
 90
4
 70
1
 10
238.590000
 20
19.430000
 42
-0.414219
 10
238.890000
 20
19.730000
 42
-0.414219
 10
239.190000
 20
19.430000
 42
-0.414219
 10
238.890000
 20
19.130000
 42
-0.414219
  0
LWPOLYLINE
  5
1B7
330
12
100
AcDbEntity
  8
0
100
AcDbPolyline
 43
0
 90
4
 70
1
 10
239.220000
 20
96.900000
 42
-0.414219
 10
239.520000
 20
97.200000
 42
-0.414219
 10
239.820000
 20
96.900000
 42
-0.414219
 10
239.520000
 20
96.600000
 42
-0.414219
  0
LWPOLYLINE
  5
1B8
330
12
100
AcDbEntity
  8
0
100
AcDbPolyline
 43
0
 90
4
 70
1
 10
239.220000
 20
98.810000
 42
-0.414219
 10
239.520000
 20
99.110000
 42
-0.414219
 10
239.820000
 20
98.810000
 42
-0.414219
 10
239.520000
 20
98.510000
 42
-0.414219
  0
LWPOLYLINE
  5
1B9
330
12
100
AcDbEntity
  8
0
100
AcDbPolyline
 43
0
 90
4
 70
1
 10
239.860000
 20
23.880000
 42
-0.414219
 10
240.160000
 20
24.180000
 42
-0.414219
 10
240.460000
 20
23.880000
 42
-0.414219
 10
240.160000
 20
23.580000
 42
-0.414219
  0
LWPOLYLINE
  5
1BA
330
12
100
AcDbEntity
  8
0
100
AcDbPolyline
 43
0
 90
4
 70
1
 10
240.490000
 20
17.520000
 42
-0.414219
 10
240.790000
 20
17.820000
 42
-0.414219
 10
241.090000
 20
17.520000
 42
-0.414219
 10
240.790000
 20
17.220000
 42
-0.414219
  0
LWPOLYLINE
  5
1BB
330
12
100
AcDbEntity
  8
0
100
AcDbPolyline
 43
0
 90
4
 70
1
 10
241.120000
 20
66.420000
 42
-0.414219
 10
241.420000
 20
66.720000
 42
-0.414219
 10
241.720000
 20
66.420000
 42
-0.414219
 10
241.420000
 20
66.120000
 42
-0.414219
  0
LWPOLYLINE
  5
1BC
330
12
100
AcDbEntity
  8
0
100
AcDbPolyline
 43
0
 90
4
 70
1
 10
241.330000
 20
51.310000
 42
-0.414219
 10
241.630000
 20
51.610000
 42
-0.414219
 10
241.930000
 20
51.310000
 42
-0.414219
 10
241.630000
 20
51.010000
 42
-0.414219
  0
LWPOLYLINE
  5
1BD
330
12
100
AcDbEntity
  8
0
100
AcDbPolyline
 43
0
 90
4
 70
1
 10
241.760000
 20
53.080000
 42
-0.414219
 10
242.060000
 20
53.380000
 42
-0.414219
 10
242.360000
 20
53.080000
 42
-0.414219
 10
242.060000
 20
52.780000
 42
-0.414219
  0
LWPOLYLINE
  5
1BE
330
12
100
AcDbEntity
  8
0
100
AcDbPolyline
 43
0
 90
4
 70
1
 10
241.760000
 20
56.260000
 42
-0.414219
 10
242.060000
 20
56.560000
 42
-0.414219
 10
242.360000
 20
56.260000
 42
-0.414219
 10
242.060000
 20
55.960000
 42
-0.414219
  0
LWPOLYLINE
  5
1BF
330
12
100
AcDbEntity
  8
0
100
AcDbPolyline
 43
0
 90
4
 70
1
 10
243.030000
 20
17.520000
 42
-0.414219
 10
243.330000
 20
17.820000
 42
-0.414219
 10
243.630000
 20
17.520000
 42
-0.414219
 10
243.330000
 20
17.220000
 42
-0.414219
  0
LWPOLYLINE
  5
1C0
330
12
100
AcDbEntity
  8
0
100
AcDbPolyline
 43
0
 90
4
 70
1
 10
243.030000
 20
34.030000
 42
-0.414219
 10
243.330000
 20
34.330000
 42
-0.414219
 10
243.630000
 20
34.030000
 42
-0.414219
 10
243.330000
 20
33.730000
 42
-0.414219
  0
LWPOLYLINE
  5
1C1
330
12
100
AcDbEntity
  8
0
100
AcDbPolyline
 43
0
 90
4
 70
1
 10
243.030000
 20
36.580000
 42
-0.414219
 10
243.330000
 20
36.880000
 42
-0.414219
 10
243.630000
 20
36.580000
 42
-0.414219
 10
243.330000
 20
36.280000
 42
-0.414219
  0
LWPOLYLINE
  5
1C2
330
12
100
AcDbEntity
  8
0
100
AcDbPolyline
 43
0
 90
4
 70
1
 10
244.500000
 20
46.100000
 42
-0.414219
 10
244.800000
 20
46.400000
 42
-0.414219
 10
245.100000
 20
46.100000
 42
-0.414219
 10
244.800000
 20
45.800000
 42
-0.414219
  0
LWPOLYLINE
  5
1C3
330
12
100
AcDbEntity
  8
0
100
AcDbPolyline
 43
0
 90
4
 70
1
 10
244.940000
 20
30.860000
 42
-0.414219
 10
245.240000
 20
31.160000
 42
-0.414219
 10
245.540000
 20
30.860000
 42
-0.414219
 10
245.240000
 20
30.560000
 42
-0.414219
  0
LWPOLYLINE
  5
1C4
330
12
100
AcDbEntity
  8
0
100
AcDbPolyline
 43
0
 90
4
 70
1
 10
244.940000
 20
42.920000
 42
-0.414219
 10
245.240000
 20
43.220000
 42
-0.414219
 10
245.540000
 20
42.920000
 42
-0.414219
 10
245.240000
 20
42.620000
 42
-0.414219
  0
LWPOLYLINE
  5
1C5
330
12
100
AcDbEntity
  8
0
100
AcDbPolyline
 43
0
 90
4
 70
1
 10
245.320000
 20
62.100000
 42
-0.414219
 10
245.620000
 20
62.400000
 42
-0.414219
 10
245.920000
 20
62.100000
 42
-0.414219
 10
245.620000
 20
61.800000
 42
-0.414219
  0
LWPOLYLINE
  5
1C6
330
12
100
AcDbEntity
  8
0
100
AcDbPolyline
 43
0
 90
4
 70
1
 10
245.570000
 20
57.530000
 42
-0.414219
 10
245.870000
 20
57.830000
 42
-0.414219
 10
246.170000
 20
57.530000
 42
-0.414219
 10
245.870000
 20
57.230000
 42
-0.414219
  0
LWPOLYLINE
  5
1C7
330
12
100
AcDbEntity
  8
0
100
AcDbPolyline
 43
0
 90
4
 70
1
 10
245.700000
 20
45.470000
 42
-0.414219
 10
246.000000
 20
45.770000
 42
-0.414219
 10
246.300000
 20
45.470000
 42
-0.414219
 10
246.000000
 20
45.170000
 42
-0.414219
  0
LWPOLYLINE
  5
1C8
330
12
100
AcDbEntity
  8
0
100
AcDbPolyline
 43
0
 90
4
 70
1
 10
245.770000
 20
48.970000
 42
-0.414219
 10
246.070000
 20
49.270000
 42
-0.414219
 10
246.370000
 20
48.970000
 42
-0.414219
 10
246.070000
 20
48.670000
 42
-0.414219
  0
LWPOLYLINE
  5
1C9
330
12
100
AcDbEntity
  8
0
100
AcDbPolyline
 43
0
 90
4
 70
1
 10
246.200000
 20
19.430000
 42
-0.414219
 10
246.500000
 20
19.730000
 42
-0.414219
 10
246.800000
 20
19.430000
 42
-0.414219
 10
246.500000
 20
19.130000
 42
-0.414219
  0
LWPOLYLINE
  5
1CA
330
12
100
AcDbEntity
  8
0
100
AcDbPolyline
 43
0
 90
4
 70
1
 10
246.200000
 20
25.780000
 42
-0.414219
 10
246.500000
 20
26.080000
 42
-0.414219
 10
246.800000
 20
25.780000
 42
-0.414219
 10
246.500000
 20
25.480000
 42
-0.414219
  0
LWPOLYLINE
  5
1CB
330
12
100
AcDbEntity
  8
0
100
AcDbPolyline
 43
0
 90
4
 70
1
 10
246.460000
 20
53.080000
 42
-0.414219
 10
246.760000
 20
53.380000
 42
-0.414219
 10
247.060000
 20
53.080000
 42
-0.414219
 10
246.760000
 20
52.780000
 42
-0.414219
  0
LWPOLYLINE
  5
1CC
330
12
100
AcDbEntity
  8
0
100
AcDbPolyline
 43
0
 90
4
 70
1
 10
246.490000
 20
114.680000
 42
-0.414216
 10
247.140000
 20
115.330000
 42
-0.414216
 10
247.790000
 20
114.680000
 42
-0.414216
 10
247.140000
 20
114.030000
 42
-0.414216
  0
LWPOLYLINE
  5
1CD
330
12
100
AcDbEntity
  8
0
100
AcDbPolyline
 43
0
 90
4
 70
1
 10
246.490000
 20
126.110000
 42
-0.414216
 10
247.140000
 20
126.760000
 42
-0.414216
 10
247.790000
 20
126.110000
 42
-0.414216
 10
247.140000
 20
125.460000
 42
-0.414216
  0
LWPOLYLINE
  5
1CE
330
12
100
AcDbEntity
  8
0
100
AcDbPolyline
 43
0
 90
4
 70
1
 10
246.490000
 20
137.540000
 42
-0.414216
 10
247.140000
 20
138.190000
 42
-0.414216
 10
247.790000
 20
137.540000
 42
-0.414216
 10
247.140000
 20
136.890000
 42
-0.414216
  0
LWPOLYLINE
  5
1CF
330
12
100
AcDbEntity
  8
0
100
AcDbPolyline
 43
0
 90
4
 70
1
 10
246.490000
 20
148.970000
 42
-0.414216
 10
247.140000
 20
149.620000
 42
-0.414216
 10
247.790000
 20
148.970000
 42
-0.414216
 10
247.140000
 20
148.320000
 42
-0.414216
  0
LWPOLYLINE
  5
1D0
330
12
100
AcDbEntity
  8
0
100
AcDbPolyline
 43
0
 90
4
 70
1
 10
246.840000
 20
32.760000
 42
-0.414219
 10
247.140000
 20
33.060000
 42
-0.414219
 10
247.440000
 20
32.760000
 42
-0.414219
 10
247.140000
 20
32.460000
 42
-0.414219
  0
LWPOLYLINE
  5
1D1
330
12
100
AcDbEntity
  8
0
100
AcDbPolyline
 43
0
 90
4
 70
1
 10
246.840000
 20
35.310000
 42
-0.414219
 10
247.140000
 20
35.610000
 42
-0.414219
 10
247.440000
 20
35.310000
 42
-0.414219
 10
247.140000
 20
35.010000
 42
-0.414219
  0
LWPOLYLINE
  5
1D2
330
12
100
AcDbEntity
  8
0
100
AcDbPolyline
 43
0
 90
4
 70
1
 10
246.840000
 20
37.840000
 42
-0.414219
 10
247.140000
 20
38.140000
 42
-0.414219
 10
247.440000
 20
37.840000
 42
-0.414219
 10
247.140000
 20
37.540000
 42
-0.414219
  0
LWPOLYLINE
  5
1D3
330
12
100
AcDbEntity
  8
0
100
AcDbPolyline
 43
0
 90
4
 70
1
 10
246.840000
 20
40.380000
 42
-0.414219
 10
247.140000
 20
40.680000
 42
-0.414219
 10
247.440000
 20
40.380000
 42
-0.414219
 10
247.140000
 20
40.080000
 42
-0.414219
  0
LWPOLYLINE
  5
1D4
330
12
100
AcDbEntity
  8
0
100
AcDbPolyline
 43
0
 90
4
 70
1
 10
246.840000
 20
42.290000
 42
-0.414219
 10
247.140000
 20
42.590000
 42
-0.414219
 10
247.440000
 20
42.290000
 42
-0.414219
 10
247.140000
 20
41.990000
 42
-0.414219
  0
LWPOLYLINE
  5
1D5
330
12
100
AcDbEntity
  8
0
100
AcDbPolyline
 43
0
 90
4
 70
1
 10
247.470000
 20
61.970000
 42
-0.414219
 10
247.770000
 20
62.270000
 42
-0.414219
 10
248.070000
 20
61.970000
 42
-0.414219
 10
247.770000
 20
61.670000
 42
-0.414219
  0
LWPOLYLINE
  5
1D6
330
12
100
AcDbEntity
  8
0
100
AcDbPolyline
 43
0
 90
4
 70
1
 10
249.380000
 20
44.190000
 42
-0.414219
 10
249.680000
 20
44.490000
 42
-0.414219
 10
249.980000
 20
44.190000
 42
-0.414219
 10
249.680000
 20
43.890000
 42
-0.414219
  0
LWPOLYLINE
  5
1D7
330
12
100
AcDbEntity
  8
0
100
AcDbPolyline
 43
0
 90
4
 70
1
 10
249.380000
 20
53.720000
 42
-0.414219
 10
249.680000
 20
54.020000
 42
-0.414219
 10
249.980000
 20
53.720000
 42
-0.414219
 10
249.680000
 20
53.420000
 42
-0.414219
  0
LWPOLYLINE
  5
1D8
330
12
100
AcDbEntity
  8
0
100
AcDbPolyline
 43
0
 90
4
 70
1
 10
249.380000
 20
60.070000
 42
-0.414219
 10
249.680000
 20
60.370000
 42
-0.414219
 10
249.980000
 20
60.070000
 42
-0.414219
 10
249.680000
 20
59.770000
 42
-0.414219
  0
LWPOLYLINE
  5
1D9
330
12
100
AcDbEntity
  8
0
100
AcDbPolyline
 43
0
 90
4
 70
1
 10
251.490000
 20
32.760000
 42
-0.414219
 10
251.790000
 20
33.060000
 42
-0.414219
 10
252.090000
 20
32.760000
 42
-0.414219
 10
251.790000
 20
32.460000
 42
-0.414219
  0
LWPOLYLINE
  5
1DA
330
12
100
AcDbEntity
  8
0
100
AcDbPolyline
 43
0
 90
4
 70
1
 10
251.490000
 20
40.380000
 42
-0.414219
 10
251.790000
 20
40.680000
 42
-0.414219
 10
252.090000
 20
40.380000
 42
-0.414219
 10
251.790000
 20
40.080000
 42
-0.414219
  0
LWPOLYLINE
  5
1DB
330
12
100
AcDbEntity
  8
0
100
AcDbPolyline
 43
0
 90
4
 70
1
 10
251.920000
 20
53.720000
 42
-0.414219
 10
252.220000
 20
54.020000
 42
-0.414219
 10
252.520000
 20
53.720000
 42
-0.414219
 10
252.220000
 20
53.420000
 42
-0.414219
  0
LWPOLYLINE
  5
1DC
330
12
100
AcDbEntity
  8
0
100
AcDbPolyline
 43
0
 90
4
 70
1
 10
251.920000
 20
59.440000
 42
-0.414219
 10
252.220000
 20
59.740000
 42
-0.414219
 10
252.520000
 20
59.440000
 42
-0.414219
 10
252.220000
 20
59.140000
 42
-0.414219
  0
LWPOLYLINE
  5
1DD
330
12
100
AcDbEntity
  8
0
100
AcDbPolyline
 43
0
 90
4
 70
1
 10
254.460000
 20
56.510000
 42
-0.414219
 10
254.760000
 20
56.810000
 42
-0.414219
 10
255.060000
 20
56.510000
 42
-0.414219
 10
254.760000
 20
56.210000
 42
-0.414219
  0
LWPOLYLINE
  5
1DE
330
12
100
AcDbEntity
  8
0
100
AcDbPolyline
 43
0
 90
4
 70
1
 10
257.005000
 20
131.190000
 42
-0.414216
 10
257.780000
 20
131.965000
 42
-0.414216
 10
258.555000
 20
131.190000
 42
-0.414216
 10
257.780000
 20
130.415000
 42
-0.414216
  0
LWPOLYLINE
  5
1DF
330
12
100
AcDbEntity
  8
0
100
AcDbPolyline
 43
0
 90
4
 70
1
 10
257.915000
 20
123.850000
 42
-0.414215
 10
259.840000
 20
125.775000
 42
-0.414215
 10
261.765000
 20
123.850000
 42
-0.414215
 10
259.840000
 20
121.925000
 42
-0.414215
  0
LWPOLYLINE
  5
1E0
330
12
100
AcDbEntity
  8
0
100
AcDbPolyline
 43
0
 90
4
 70
1
 10
258.200000
 20
150.520000
 42
-0.414214
 10
260.400000
 20
152.720000
 42
-0.414214
 10
262.600000
 20
150.520000
 42
-0.414214
 10
260.400000
 20
148.320000
 42
-0.414214
  0
LWPOLYLINE
  5
1E1
330
12
100
AcDbEntity
  8
0
100
AcDbPolyline
 43
0
 90
4
 70
1
 10
258.330000
 20
17.520000
 42
-0.414214
 10
260.530000
 20
19.720000
 42
-0.414214
 10
262.730000
 20
17.520000
 42
-0.414214
 10
260.530000
 20
15.320000
 42
-0.414214
  0
LWPOLYLINE
  5
1E2
330
12
100
AcDbEntity
  8
0
100
AcDbPolyline
 43
0
 90
4
 70
1
 10
261.125000
 20
131.190000
 42
-0.414216
 10
261.900000
 20
131.965000
 42
-0.414216
 10
262.675000
 20
131.190000
 42
-0.414216
 10
261.900000
 20
130.415000
 42
-0.414216
  0
LWPOLYLINE
  5
1E3
330
12
100
AcDbEntity
  8
0
100
AcDbPolyline
 43
0
 90
4
 70
1
 10
263.550000
 20
26.000000
 42
-0.414215
 10
265.000000
 20
27.450000
 42
-0.414215
 10
266.450000
 20
26.000000
 42
-0.414215
 10
265.000000
 20
24.550000
 42
-0.414215
  0
LWPOLYLINE
  5
1E4
330
12
100
AcDbEntity
  8
0
100
AcDbPolyline
 43
0
 90
4
 70
1
 10
268.950000
 20
29.000000
 42
-0.414217
 10
269.500000
 20
29.550000
 42
-0.414217
 10
270.050000
 20
29.000000
 42
-0.414217
 10
269.500000
 20
28.450000
 42
-0.414217
  0
LWPOLYLINE
  5
1E5
330
12
100
AcDbEntity
  8
0
100
AcDbPolyline
 43
0
 90
4
 70
1
 10
268.950000
 20
30.500000
 42
-0.414217
 10
269.500000
 20
31.050000
 42
-0.414217
 10
270.050000
 20
30.500000
 42
-0.414217
 10
269.500000
 20
29.950000
 42
-0.414217
  0
LWPOLYLINE
  5
1E6
330
12
100
AcDbEntity
  8
0
100
AcDbPolyline
 43
0
 90
4
 70
1
 10
268.950000
 20
32.000000
 42
-0.414217
 10
269.500000
 20
32.550000
 42
-0.414217
 10
270.050000
 20
32.000000
 42
-0.414217
 10
269.500000
 20
31.450000
 42
-0.414217
  0
LWPOLYLINE
  5
1E7
330
12
100
AcDbEntity
  8
0
100
AcDbPolyline
 43
0
 90
4
 70
1
 10
268.950000
 20
136.000000
 42
-0.414217
 10
269.500000
 20
136.550000
 42
-0.414217
 10
270.050000
 20
136.000000
 42
-0.414217
 10
269.500000
 20
135.450000
 42
-0.414217
  0
LWPOLYLINE
  5
1E8
330
12
100
AcDbEntity
  8
0
100
AcDbPolyline
 43
0
 90
4
 70
1
 10
268.950000
 20
137.500000
 42
-0.414217
 10
269.500000
 20
138.050000
 42
-0.414217
 10
270.050000
 20
137.500000
 42
-0.414217
 10
269.500000
 20
136.950000
 42
-0.414217
  0
LWPOLYLINE
  5
1E9
330
12
100
AcDbEntity
  8
0
100
AcDbPolyline
 43
0
 90
4
 70
1
 10
268.950000
 20
139.000000
 42
-0.414217
 10
269.500000
 20
139.550000
 42
-0.414217
 10
270.050000
 20
139.000000
 42
-0.414217
 10
269.500000
 20
138.450000
 42
-0.414217
  0
LWPOLYLINE
  5
1EA
330
12
100
AcDbEntity
  8
0
100
AcDbPolyline
 43
0
 90
4
 70
1
 10
271.445000
 20
163.050000
 10
271.445000
 20
165.000000
 42
-1
 10
274.555000
 20
165.000000
 10
274.555000
 20
163.050000
 42
-1
  0
LWPOLYLINE
  5
1EB
330
12
100
AcDbEntity
  8
0
100
AcDbPolyline
 43
0
 90
4
 70
1
 10
272.050000
 20
2.445000
 42
-1
 10
272.050000
 20
5.555000
 10
274.000000
 20
5.555000
 42
-1
 10
274.000000
 20
2.445000
  0
ENDSEC
  0
SECTION
  2
OBJECTS
  0
DICTIONARY
  5
1EC
330
0
100
AcDbDictionary
  3
ACAD_GROUP
350
1ED
  3
ACAD_MLINESTYLE
350
1EE
  0
DICTIONARY
  5
1ED
330
1EC
100
AcDbDictionary
  0
DICTIONARY
  5
1EE
330
1EC
100
AcDbDictionary
  0
ENDSEC
   0
EOF
